<svg xmlns="http://www.w3.org/2000/svg" width="135" height="451" viewBox="0 0 135 451">
  <g fill="none" opacity=".1" transform="translate(-49 -210)">
    <path fill="#00D09C" d="M172.508273,377.778401 C228.452677,377.786729 269.314026,334.445769 269.306067,280.974481 C269.298108,227.503194 221.851111,177.537386 172.479452,184.14174 C123.107793,190.746094 68.2208897,222.488472 75.681658,280.94566 C83.1424263,339.402849 116.563869,377.770074 172.508273,377.778401 Z" transform="rotate(39 172.151 280.665)"/>
    <path fill="#00D09C" d="M71.8653897,231.377441 C83.5181086,231.379176 92.0291613,222.34733 92.0275028,211.204421 C92.0258443,200.061511 82.1430585,189.649111 71.8593837,191.025397 C61.5757088,192.401682 50.1432584,199.016494 51.6972705,211.198418 C53.2512827,223.380341 60.2126708,231.375707 71.8653897,231.377441 Z" transform="rotate(39 71.791 211.14)"/>
    <path fill="#80868B" d="M240.384216,573.666291 C285.216381,576.402089 317.69194,541.53558 321.547246,492.728131 C325.402553,443.920682 285.19087,405.004466 240.360119,411.765805 C195.529368,418.527144 162.540736,446.291386 159.197089,492.703965 C155.853441,539.116544 195.552052,570.930494 240.384216,573.666291 Z" transform="rotate(39 240.402 492.408)"/>
    <path fill="#00D09C" d="M101.220037,405.240137 C106.792556,405.580186 110.829183,401.24642 111.308387,395.179851 C111.787591,389.113282 106.789385,384.276153 101.217041,385.11656 C95.6446975,385.956967 91.5442977,389.407951 91.1286911,395.176847 C90.7130844,400.945743 95.647517,404.900089 101.220037,405.240137 Z" transform="rotate(39 101.222 395.14)"/>
    <path fill="#5367FF" d="M161.033141,805.920609 C223.850635,809.753884 269.354422,760.900517 274.756363,692.51374 C280.158305,624.126963 223.814891,569.59933 160.999377,579.073011 C98.1838635,588.546692 51.9611747,627.448685 47.2761547,692.47988 C42.5911348,757.511074 98.2156469,802.087334 161.033141,805.920609 Z" transform="rotate(39 161.058 692.066)"/>
  </g>
</svg>
