<?xml version="1.0" encoding="UTF-8" standalone="no"?>
<!-- Created with Inkscape (http://www.inkscape.org/) -->

<svg
   version="1.1"
   id="svg2"
   width="570.85333"
   height="590.74664"
   viewBox="0 0 570.85333 590.74664"
   sodipodi:docname="5243320.eps"
   xmlns:inkscape="http://www.inkscape.org/namespaces/inkscape"
   xmlns:sodipodi="http://sodipodi.sourceforge.net/DTD/sodipodi-0.dtd"
   xmlns="http://www.w3.org/2000/svg"
   xmlns:svg="http://www.w3.org/2000/svg">
  <defs
     id="defs6" />
  <sodipodi:namedview
     id="namedview4"
     pagecolor="#ffffff"
     bordercolor="#000000"
     borderopacity="0.25"
     inkscape:showpageshadow="2"
     inkscape:pageopacity="0.0"
     inkscape:pagecheckerboard="0"
     inkscape:deskcolor="#d1d1d1" />
  <g
     id="g8"
     inkscape:groupmode="layer"
     inkscape:label="ink_ext_XXXXXX"
     transform="matrix(1.3333333,0,0,-1.3333333,0,590.74667)">
    <g
       id="g10"
       transform="scale(0.1)">
      <path
         d="m 3957.4,3547.15 c 46.1,19.34 78.88,66.87 79.15,122.89 0.3,73.38 -55.23,133.12 -124.05,133.44 -68.78,0.32 -124.81,-58.91 -125.11,-132.29 -0.23,-56.53 32.78,-104.64 79.38,-124.04 -191.71,-28.88 -183.02,-237.25 -183.02,-237.25 l 453.35,-2.09 c 0,0 10.35,210.64 -179.7,239.34"
         style="fill:#f3f2f1;fill-opacity:1;fill-rule:nonzero;stroke:none"
         id="path12" />
      <path
         d="M 1278.88,4325.86 982.621,4430.63 689.238,4327.27 c -37.457,-17.41 -70.308,-27.84 -70.308,-62.21 v -171.07 c 0,-118.79 31.613,-236.53 96.644,-340.45 54.727,-87.47 139.469,-177.52 269.922,-234.76 119.924,38.36 209.444,140.62 264.164,228.08 65.04,103.94 96.65,221.66 96.65,340.46 v 153.84 c 0,49 -26.37,72.92 -67.43,84.7"
         style="fill:#f3f2f1;fill-opacity:1;fill-rule:nonzero;stroke:none"
         id="path14" />
      <path
         d="m 1081.02,4049.69 c 0,45.31 -36.72,82.03 -82.032,82.03 -45.297,0 -82.019,-36.72 -82.019,-82.03 0,-37.49 25.301,-68.76 59.644,-78.54 v -122.64 h 44.757 v 122.64 c 34.35,9.79 59.65,41.05 59.65,78.54"
         style="fill:#e7e8e5;fill-opacity:1;fill-rule:nonzero;stroke:none"
         id="path16" />
      <path
         d="m 3798.09,2740.13 50.53,-27.35 -22.72,-38.01 -50.98,30.13 0.92,-56.1 h -43.57 l 0.46,56.56 -50.99,-30.59 -22.25,38.01 50.52,27.35 -50.52,27.81 22.25,38.01 50.99,-30.59 -0.46,56.55 h 43.57 l -0.92,-56.55 50.98,30.59 22.72,-38.01 -50.53,-27.81"
         style="fill:#dadbd8;fill-opacity:1;fill-rule:nonzero;stroke:none"
         id="path18" />
      <path
         d="m 4008.51,2740.13 50.53,-27.35 -22.72,-38.01 -50.98,30.13 0.92,-56.1 h -43.57 l 0.46,56.56 -50.99,-30.59 -22.25,38.01 50.52,27.35 -50.52,27.81 22.25,38.01 50.99,-30.59 -0.46,56.55 h 43.57 l -0.92,-56.55 50.98,30.59 22.72,-38.01 -50.53,-27.81"
         style="fill:#dadbd8;fill-opacity:1;fill-rule:nonzero;stroke:none"
         id="path20" />
      <path
         d="m 4218.94,2740.13 50.53,-27.35 -22.72,-38.01 -50.98,30.13 0.92,-56.1 h -43.57 l 0.46,56.56 -50.99,-30.59 -22.25,38.01 50.52,27.35 -50.52,27.81 22.25,38.01 50.99,-30.59 -0.46,56.55 h 43.57 l -0.92,-56.55 50.98,30.59 22.72,-38.01 -50.53,-27.81"
         style="fill:#dadbd8;fill-opacity:1;fill-rule:nonzero;stroke:none"
         id="path22" />
      <path
         d="M 2078.04,346.512 V 35.8906 H 3033.3 V 346.512 h -955.26"
         style="fill:#f3f2f1;fill-opacity:1;fill-rule:nonzero;stroke:none"
         id="path24" />
      <path
         d="M 2037.96,433.359 V 346.512 H 3066.7 v 86.847 h -534.41 -494.33"
         style="fill:#e7e8e5;fill-opacity:1;fill-rule:nonzero;stroke:none"
         id="path26" />
      <path
         d="M 2552.33,35.8906 H 3033.3 V 346.512 h 33.4 v 86.847 h -534.41 v -78.808 l 20.04,-318.6604"
         style="fill:#e7e8e5;fill-opacity:1;fill-rule:nonzero;stroke:none"
         id="path28" />
      <path
         d="M 2211.64,296.422 V 249.66 h 193.73 v 46.762 h -193.73"
         style="fill:#dadbd8;fill-opacity:1;fill-rule:nonzero;stroke:none"
         id="path30" />
      <path
         d="m 2435.46,92.4688 h -248.75 v 98.7302 h 248.75 V 92.4688"
         style="fill:#ffffff;fill-opacity:1;fill-rule:nonzero;stroke:none"
         id="path32" />
      <path
         d="M 2225,743.57 V 432.941 h 955.27 V 743.57 H 2225"
         style="fill:#f3f2f1;fill-opacity:1;fill-rule:nonzero;stroke:none"
         id="path34" />
      <path
         d="m 2184.93,830.41 v -86.84 h 1028.75 v 86.84 h -534.43 -494.32"
         style="fill:#e7e8e5;fill-opacity:1;fill-rule:nonzero;stroke:none"
         id="path36" />
      <path
         d="m 2699.3,432.941 h 480.97 V 743.57 h 33.41 v 86.84 h -534.43 v -78.808 l 20.05,-318.661"
         style="fill:#e7e8e5;fill-opacity:1;fill-rule:nonzero;stroke:none"
         id="path38" />
      <path
         d="m 2358.61,693.48 v -46.761 h 193.73 v 46.761 h -193.73"
         style="fill:#dadbd8;fill-opacity:1;fill-rule:nonzero;stroke:none"
         id="path40" />
      <path
         d="m 2582.44,489.531 h -248.76 v 98.731 h 248.76 v -98.731"
         style="fill:#ffffff;fill-opacity:1;fill-rule:nonzero;stroke:none"
         id="path42" />
      <path
         d="m 4281.38,33.5 c 0,-1.4414 -958.5,-2.6016 -2140.59,-2.6016 C 958.289,30.8984 0,32.0586 0,33.5 c 0,1.4414 958.289,2.6016 2140.79,2.6016 1182.09,0 2140.59,-1.1602 2140.59,-2.6016"
         style="fill:#17282f;fill-opacity:1;fill-rule:nonzero;stroke:none"
         id="path44" />
      <path
         d="M 3397.76,2467.5 H 1611.4 c -36.22,0 -65.6,29.37 -65.6,65.6 v 1643.48 c 0,36.23 29.38,65.6 65.6,65.6 h 1786.36 c 36.24,0 65.6,-29.37 65.6,-65.6 V 2533.1 c 0,-36.23 -29.36,-65.6 -65.6,-65.6"
         style="fill:#ffffff;fill-opacity:1;fill-rule:nonzero;stroke:none"
         id="path46" />
      <path
         d="m 3397.76,2467.5 c 0,0 1.59,0.17 4.71,0.37 3.13,0.21 7.8,0.86 13.73,2.57 5.87,1.85 13.07,4.86 20.4,10.37 7.26,5.46 14.79,13.39 19.86,24.34 5.67,10.81 6.82,24.47 6.26,39.4 -0.04,14.95 -0.08,31.29 -0.13,49 -0.07,35.42 -0.14,76.28 -0.23,122.27 -0.2,184.05 -0.48,450.27 -0.83,779.21 -0.1,164.5 -0.21,344.67 -0.33,538.08 -0.08,48.32 -0.17,97.45 -0.26,147.38 -1.16,24.22 -17.87,47.01 -41.05,55.38 -11.48,4.78 -24.04,4.01 -36.91,4.04 -12.78,0 -25.61,-0.01 -38.49,-0.02 -103.04,-0.03 -209.08,-0.07 -317.82,-0.1 -434.96,-0.07 -913.16,-0.14 -1415.09,-0.21 -15.11,-0.01 -30.04,-5.54 -41.39,-15.42 -11.44,-9.77 -19.09,-23.8 -21.07,-38.65 -1.04,-7.3 -0.63,-15.17 -0.71,-22.97 v -23.34 c -0.01,-15.54 -0.01,-31.06 -0.01,-46.56 0,-61.98 0,-123.55 -0.01,-184.68 -0.01,-122.24 -0.02,-242.69 -0.04,-361.06 -0.05,-236.71 -0.1,-465.05 -0.15,-682.56 -0.04,-108.76 -0.07,-214.81 -0.11,-317.85 0.05,-6.4 -0.17,-12.99 0.28,-19.08 0.69,-6.14 1.94,-12.25 4.32,-17.96 4.61,-11.46 12.64,-21.41 22.69,-28.42 10.09,-6.97 22.13,-10.93 34.32,-11.2 12.57,-0.03 25.09,-0.07 37.56,-0.11 49.98,-0.02 99.17,-0.04 147.53,-0.07 193.43,-0.11 373.61,-0.22 538.1,-0.31 328.95,-0.35 595.14,-0.63 779.17,-0.83 91.95,-0.21 163.34,-0.38 211.84,-0.49 24.17,-0.11 42.62,-0.2 55.09,-0.26 12.41,-0.08 18.77,-0.26 18.77,-0.26 0,0 -6.36,-0.18 -18.77,-0.27 -12.47,-0.06 -30.92,-0.14 -55.09,-0.26 -48.5,-0.11 -119.89,-0.28 -211.84,-0.49 -184.03,-0.19 -450.22,-0.47 -779.17,-0.83 -164.49,-0.09 -344.67,-0.2 -538.1,-0.31 -48.36,-0.03 -97.55,-0.05 -147.53,-0.07 -12.51,0.02 -25.07,0.05 -37.69,0.07 -13.02,0.28 -25.95,4.52 -36.76,11.97 -10.78,7.5 -19.39,18.15 -24.34,30.44 -2.56,6.12 -3.92,12.67 -4.64,19.26 -0.5,6.73 -0.25,13 -0.32,19.48 -0.03,103.04 -0.07,209.09 -0.11,317.85 -0.05,217.51 -0.1,445.85 -0.15,682.56 -0.01,118.37 -0.02,238.82 -0.04,361.06 0,61.13 0,122.7 -0.01,184.68 0,15.5 0,31.02 0,46.56 v 23.34 c 0.1,7.76 -0.36,15.55 0.76,23.71 2.16,16.08 10.44,31.27 22.82,41.84 12.26,10.7 28.49,16.7 44.8,16.7 501.93,-0.07 980.13,-0.14 1415.09,-0.2 108.74,-0.04 214.78,-0.08 317.82,-0.12 12.88,0 25.71,-0.01 38.49,-0.01 12.51,-0.04 26.15,0.77 38.49,-4.36 24.83,-8.98 42.69,-33.4 43.91,-59.34 0.05,-50.02 0.1,-99.24 0.14,-147.65 -0.11,-193.41 -0.21,-373.58 -0.31,-538.08 -0.35,-328.94 -0.64,-595.16 -0.83,-779.21 -0.09,-45.99 -0.17,-86.85 -0.24,-122.27 -0.04,-17.71 -0.08,-34.05 -0.12,-49 0.5,-14.81 -0.77,-28.99 -6.61,-39.86 -5.23,-11.08 -12.94,-19.06 -20.34,-24.52 -7.46,-5.5 -14.77,-8.46 -20.72,-10.23 -6,-1.65 -10.72,-2.21 -13.86,-2.34 -3.14,-0.11 -4.73,-0.1 -4.73,-0.1"
         style="fill:#17282f;fill-opacity:1;fill-rule:nonzero;stroke:none"
         id="path48" />
      <path
         d="m 1690.52,4119.2 c 0,-18.32 -14.85,-33.16 -33.16,-33.16 -18.3,0 -33.15,14.84 -33.15,33.16 0,18.3 14.85,33.14 33.15,33.14 18.31,0 33.16,-14.84 33.16,-33.14"
         style="fill:#17282f;fill-opacity:1;fill-rule:nonzero;stroke:none"
         id="path50" />
      <path
         d="m 1787.34,4119.2 c 0,-18.32 -14.84,-33.16 -33.15,-33.16 -18.31,0 -33.15,14.84 -33.15,33.16 0,18.3 14.84,33.14 33.15,33.14 18.31,0 33.15,-14.84 33.15,-33.14"
         style="fill:#17282f;fill-opacity:1;fill-rule:nonzero;stroke:none"
         id="path52" />
      <path
         d="m 1884.16,4119.2 c 0,-18.32 -14.83,-33.16 -33.15,-33.16 -18.3,0 -33.14,14.84 -33.14,33.16 0,18.3 14.84,33.14 33.14,33.14 18.32,0 33.15,-14.84 33.15,-33.14"
         style="fill:#17282f;fill-opacity:1;fill-rule:nonzero;stroke:none"
         id="path54" />
      <path
         d="m 3463.36,4025.15 c 0,-1.44 -429.29,-2.61 -958.73,-2.61 -529.62,0 -958.83,1.17 -958.83,2.61 0,1.44 429.21,2.6 958.83,2.6 529.44,0 958.73,-1.16 958.73,-2.6"
         style="fill:#17282f;fill-opacity:1;fill-rule:nonzero;stroke:none"
         id="path56" />
      <path
         d="m 2775.45,3356.61 c 0,0 0.76,1.07 2.3,3.09 l 1.29,1.69 1.31,2.24 c 0.92,1.64 2.08,3.49 2.91,5.83 0.45,1.15 0.99,2.35 1.45,3.65 0.37,1.33 0.75,2.73 1.16,4.2 0.47,1.46 0.73,3.04 0.97,4.69 0.21,1.65 0.66,3.34 0.72,5.15 0.77,7.21 0.29,15.61 -1.14,24.88 -2.87,18.61 -10.76,40.52 -22.84,64.33 -12.06,23.87 -28.66,49.54 -49.06,76.3 -20.41,26.77 -44.96,54.41 -73.16,82.17 -28.24,27.73 -60.2,55.58 -96.04,81.98 -17.93,13.17 -36.84,25.95 -56.78,37.99 -19.91,12.07 -40.91,23.32 -63.06,33.07 -22.15,9.63 -45.51,18.02 -70.16,21.99 -12.29,1.9 -24.95,2.81 -37.42,0.92 -6.22,-0.95 -12.32,-2.65 -18.07,-5.23 -5.67,-2.76 -10.87,-6.44 -15.18,-11.1 -4.13,-4.8 -7.21,-10.38 -9.32,-16.32 -1.91,-6.01 -2.92,-12.27 -3.16,-18.56 -0.47,-12.6 1.89,-25.09 5.16,-37.08 6.75,-24.04 17.74,-46.31 29.83,-67.22 12.21,-20.91 25.78,-40.5 40.03,-58.91 14.24,-18.44 29.08,-35.78 44.22,-52.09 30.31,-32.61 61.62,-61.2 92.38,-86.1 30.79,-24.87 61.06,-46.1 89.97,-63.33 28.91,-17.22 56.3,-30.8 81.38,-40.06 25.04,-9.29 47.71,-14.63 66.51,-15.37 9.38,-0.37 17.78,0.11 24.84,1.7 1.79,0.26 3.43,0.9 5.05,1.3 1.61,0.44 3.14,0.86 4.54,1.5 1.41,0.57 2.76,1.11 4.04,1.63 1.24,0.6 2.36,1.28 3.46,1.86 2.23,1.09 3.94,2.45 5.46,3.56 l 2.08,1.54 1.53,1.48 c 1.84,1.76 2.8,2.63 2.8,2.63 0,0 -0.89,-0.94 -2.69,-2.74 l -1.53,-1.51 -2.06,-1.58 c -1.51,-1.13 -3.21,-2.52 -5.45,-3.64 -1.09,-0.6 -2.21,-1.29 -3.45,-1.91 -1.29,-0.52 -2.64,-1.08 -4.06,-1.67 -1.4,-0.65 -2.94,-1.09 -4.56,-1.54 -1.63,-0.41 -3.27,-1.06 -5.06,-1.34 -7.1,-1.64 -15.54,-2.17 -24.97,-1.84 -18.89,0.65 -41.65,5.93 -66.76,15.17 -25.17,9.21 -52.65,22.74 -81.63,39.93 -29,17.2 -59.34,38.41 -90.21,63.28 -30.83,24.89 -62.23,53.49 -92.61,86.12 -15.17,16.33 -30.05,33.69 -44.33,52.16 -14.3,18.45 -27.91,38.07 -40.17,59.04 -12.14,20.98 -23.19,43.33 -30,67.56 -3.3,12.09 -5.69,24.7 -5.21,37.53 0.24,6.4 1.27,12.8 3.23,18.98 2.17,6.1 5.34,11.86 9.62,16.83 4.45,4.81 9.83,8.61 15.65,11.45 5.91,2.65 12.15,4.38 18.48,5.35 12.69,1.92 25.48,0.98 37.87,-0.93 24.83,-4.01 48.29,-12.45 70.52,-22.11 22.21,-9.8 43.25,-21.09 63.2,-33.19 19.97,-12.07 38.91,-24.89 56.86,-38.1 35.87,-26.47 67.85,-54.4 96.09,-82.21 28.21,-27.83 52.73,-55.56 73.13,-82.41 20.38,-26.84 36.95,-52.6 48.96,-76.55 12.04,-23.91 19.87,-45.92 22.68,-64.62 1.4,-9.32 1.83,-17.77 1,-25.01 -0.06,-1.82 -0.53,-3.53 -0.75,-5.18 -0.26,-1.66 -0.53,-3.25 -1.01,-4.71 -0.42,-1.47 -0.82,-2.88 -1.2,-4.22 -0.48,-1.31 -1.03,-2.5 -1.5,-3.65 -0.85,-2.35 -2.04,-4.2 -2.99,-5.83 l -1.35,-2.23 -1.33,-1.69 c -1.57,-1.99 -2.41,-2.99 -2.41,-2.99"
         style="fill:#f2575d;fill-opacity:1;fill-rule:nonzero;stroke:none"
         id="path58" />
      <path
         d="m 2866.23,3575.74 c 0,0 -0.13,1.3 -0.34,3.83 l -0.16,2.13 c -0.11,0.77 -0.34,1.61 -0.52,2.53 -0.4,1.84 -0.76,3.99 -1.71,6.29 -0.42,1.16 -0.81,2.41 -1.34,3.69 -0.61,1.24 -1.26,2.54 -1.93,3.91 -0.62,1.4 -1.49,2.74 -2.39,4.14 -0.94,1.38 -1.74,2.94 -2.91,4.33 -4.2,5.89 -10.16,11.84 -17.41,17.8 -14.53,11.97 -35,23.07 -59.86,32.81 -24.89,9.78 -54.37,17.88 -87.4,24.27 -33.05,6.39 -69.77,10.69 -109.3,12.63 -39.52,1.89 -81.92,1.4 -126.24,-2.76 -22.15,-2.1 -44.77,-5.15 -67.66,-9.43 -22.89,-4.26 -46.05,-9.84 -69.07,-17.31 -22.93,-7.55 -45.96,-16.85 -67,-30.29 -10.42,-6.77 -20.49,-14.51 -28.53,-24.22 -4,-4.85 -7.44,-10.18 -10,-15.94 -2.39,-5.83 -3.82,-12.04 -3.94,-18.38 0.11,-6.33 1.52,-12.55 3.91,-18.39 2.57,-5.75 5.98,-11.09 10,-15.94 8.02,-9.73 18.1,-17.48 28.52,-24.25 21.05,-13.44 44.07,-22.75 67.02,-30.3 23.02,-7.48 46.18,-13.06 69.08,-17.32 22.9,-4.28 45.52,-7.34 67.67,-9.44 44.33,-4.15 86.73,-4.65 126.26,-2.75 39.53,1.94 76.25,6.24 109.3,12.63 33.03,6.39 62.51,14.49 87.39,24.28 24.86,9.73 45.33,20.83 59.86,32.8 7.25,5.96 13.2,11.91 17.4,17.8 1.18,1.39 1.97,2.95 2.91,4.33 0.91,1.39 1.77,2.74 2.39,4.14 0.67,1.37 1.33,2.67 1.93,3.91 0.53,1.28 0.92,2.53 1.34,3.69 0.95,2.3 1.31,4.45 1.71,6.29 0.18,0.92 0.41,1.75 0.52,2.54 l 0.16,2.12 c 0.21,2.53 0.34,3.83 0.34,3.83 0,0 -0.03,-1.3 -0.19,-3.84 l -0.13,-2.14 c -0.1,-0.79 -0.31,-1.63 -0.48,-2.56 -0.38,-1.84 -0.72,-4.02 -1.65,-6.34 -0.41,-1.17 -0.8,-2.43 -1.31,-3.72 -0.6,-1.25 -1.25,-2.57 -1.91,-3.95 -0.61,-1.41 -1.47,-2.78 -2.38,-4.19 -0.93,-1.38 -1.72,-2.96 -2.88,-4.37 -4.21,-5.95 -10.15,-11.96 -17.41,-17.99 -14.53,-12.09 -35.02,-23.3 -59.92,-33.12 -24.91,-9.88 -54.42,-18.07 -87.5,-24.54 -33.08,-6.46 -69.84,-10.83 -109.43,-12.82 -39.58,-1.96 -82.04,-1.51 -126.45,2.62 -22.18,2.08 -44.85,5.13 -67.8,9.41 -22.95,4.25 -46.17,9.83 -69.27,17.32 -23.02,7.58 -46.15,16.9 -67.36,30.45 -10.52,6.82 -20.69,14.65 -28.88,24.53 -4.08,4.94 -7.56,10.4 -10.21,16.31 -2.45,6 -3.92,12.42 -4.03,18.98 0.11,6.54 1.6,12.96 4.06,18.95 2.63,5.92 6.15,11.36 10.22,16.3 8.2,9.87 18.36,17.7 28.88,24.51 21.21,13.55 44.33,22.86 67.34,30.44 23.1,7.48 46.32,13.06 69.26,17.31 22.95,4.28 45.61,7.32 67.79,9.41 44.4,4.12 86.85,4.57 126.44,2.62 39.58,-2 76.34,-6.36 109.42,-12.82 33.08,-6.46 62.59,-14.66 87.5,-24.54 24.91,-9.82 45.4,-21.03 59.94,-33.12 7.25,-6.03 13.2,-12.04 17.4,-17.99 1.16,-1.4 1.95,-2.98 2.89,-4.37 0.91,-1.41 1.77,-2.77 2.38,-4.19 0.66,-1.38 1.3,-2.7 1.91,-3.95 0.51,-1.29 0.89,-2.55 1.31,-3.73 0.93,-2.31 1.27,-4.48 1.65,-6.34 0.17,-0.92 0.38,-1.77 0.48,-2.55 l 0.13,-2.14 c 0.16,-2.54 0.19,-3.84 0.19,-3.84"
         style="fill:#f2575d;fill-opacity:1;fill-rule:nonzero;stroke:none"
         id="path60" />
      <path
         d="m 2745.95,3848.51 c 0,0 -1.11,0.68 -3.23,2.07 l -1.78,1.17 -2.32,1.15 c -1.7,0.81 -3.63,1.84 -6.02,2.51 -1.18,0.37 -2.41,0.82 -3.74,1.2 -1.36,0.27 -2.78,0.56 -4.28,0.86 -1.48,0.37 -3.07,0.51 -4.73,0.64 -1.66,0.11 -3.39,0.44 -5.2,0.37 -7.23,0.27 -15.58,-0.78 -24.73,-2.85 -18.37,-4.16 -39.69,-13.54 -62.61,-27.23 -22.98,-13.67 -47.45,-32 -72.74,-54.2 -25.3,-22.2 -51.19,-48.58 -76.94,-78.63 -25.71,-30.09 -51.3,-63.9 -75.17,-101.47 -11.9,-18.79 -23.35,-38.53 -33.99,-59.25 -10.66,-20.7 -20.44,-42.43 -28.64,-65.19 -8.08,-22.76 -14.84,-46.65 -17.11,-71.52 -1.05,-12.38 -1.09,-25.08 1.66,-37.39 1.39,-6.13 3.49,-12.11 6.46,-17.67 3.15,-5.45 7.18,-10.39 12.12,-14.37 5.07,-3.79 10.86,-6.48 16.93,-8.18 6.13,-1.49 12.44,-2.07 18.73,-1.87 12.6,0.4 24.9,3.61 36.64,7.7 23.52,8.39 44.98,20.9 65.01,34.39 20.01,13.63 38.62,28.51 56,44 17.43,15.46 33.69,31.48 48.93,47.7 30.44,32.48 56.81,65.69 79.53,98.09 22.69,32.43 41.79,64.09 56.98,94.12 15.19,30.02 26.85,58.29 34.36,83.95 7.54,25.61 11.31,48.59 10.75,67.41 -0.27,9.37 -1.34,17.72 -3.41,24.66 -0.38,1.77 -1.13,3.36 -1.64,4.94 -0.55,1.58 -1.07,3.09 -1.8,4.43 -0.67,1.37 -1.3,2.68 -1.91,3.92 -0.69,1.2 -1.43,2.28 -2.1,3.32 -1.24,2.15 -2.71,3.76 -3.93,5.2 l -1.67,1.97 -1.59,1.43 c -1.87,1.71 -2.82,2.62 -2.82,2.62 0,0 1.01,-0.83 2.92,-2.51 l 1.61,-1.41 1.73,-1.95 c 1.23,-1.43 2.74,-3.03 4,-5.18 0.67,-1.05 1.44,-2.13 2.14,-3.32 0.62,-1.25 1.26,-2.56 1.95,-3.94 0.74,-1.35 1.29,-2.86 1.85,-4.44 0.52,-1.59 1.29,-3.18 1.68,-4.96 2.13,-6.97 3.24,-15.35 3.57,-24.77 0.64,-18.9 -3.05,-41.96 -10.54,-67.65 -7.45,-25.75 -19.06,-54.09 -34.22,-84.2 -15.16,-30.1 -34.23,-61.83 -56.9,-94.34 -22.72,-32.48 -49.09,-65.76 -79.54,-98.32 -15.26,-16.26 -31.54,-32.32 -48.99,-47.83 -17.41,-15.53 -36.06,-30.46 -56.12,-44.13 -20.1,-13.55 -41.63,-26.12 -65.34,-34.58 -11.84,-4.14 -24.26,-7.39 -37.08,-7.79 -6.41,-0.2 -12.87,0.38 -19.15,1.92 -6.24,1.73 -12.22,4.51 -17.46,8.43 -5.11,4.11 -9.27,9.21 -12.51,14.82 -3.05,5.72 -5.2,11.83 -6.61,18.07 -2.79,12.52 -2.73,25.36 -1.69,37.84 2.3,25.06 9.11,49.05 17.22,71.88 8.23,22.83 18.05,44.61 28.75,65.34 10.66,20.76 22.15,40.53 34.09,59.35 23.95,37.6 49.6,71.43 75.39,101.52 25.83,30.06 51.8,56.44 77.18,78.63 25.37,22.18 49.93,40.48 73,54.13 23.03,13.65 44.44,22.99 62.91,27.07 9.2,2.04 17.6,3.05 24.87,2.73 1.83,0.06 3.56,-0.29 5.23,-0.4 1.67,-0.14 3.27,-0.3 4.76,-0.68 1.51,-0.32 2.93,-0.62 4.3,-0.91 1.33,-0.39 2.57,-0.86 3.75,-1.25 2.39,-0.68 4.33,-1.74 6.01,-2.58 l 2.32,-1.19 1.78,-1.2 c 2.1,-1.44 3.14,-2.2 3.14,-2.2"
         style="fill:#f2575d;fill-opacity:1;fill-rule:nonzero;stroke:none"
         id="path62" />
      <path
         d="m 2204.19,3439.86 c 4.78,-4.77 4.78,-12.52 0,-17.29 -4.77,-4.78 -12.51,-4.78 -17.28,0 -4.78,4.77 -4.78,12.52 0,17.29 4.77,4.77 12.51,4.77 17.28,0"
         style="fill:#f2575d;fill-opacity:1;fill-rule:nonzero;stroke:none"
         id="path64" />
      <path
         d="m 2894.06,3818.75 c 0,-6.76 -5.47,-12.23 -12.23,-12.23 -6.75,0 -12.23,5.47 -12.23,12.23 0,6.75 5.48,12.22 12.23,12.22 6.76,0 12.23,-5.47 12.23,-12.22"
         style="fill:#f2575d;fill-opacity:1;fill-rule:nonzero;stroke:none"
         id="path66" />
      <path
         d="m 2281.41,3399.65 c 0,-1.71 -1.4,-3.1 -3.11,-3.1 -1.71,0 -3.11,1.39 -3.11,3.1 0,1.72 1.4,3.11 3.11,3.11 1.71,0 3.11,-1.39 3.11,-3.11"
         style="fill:#f2575d;fill-opacity:1;fill-rule:nonzero;stroke:none"
         id="path68" />
      <path
         d="m 2347.73,3742.27 c 0,-1.71 -1.39,-3.1 -3.11,-3.1 -1.72,0 -3.1,1.39 -3.1,3.1 0,1.72 1.38,3.12 3.1,3.12 1.72,0 3.11,-1.4 3.11,-3.12"
         style="fill:#f2575d;fill-opacity:1;fill-rule:nonzero;stroke:none"
         id="path70" />
      <path
         d="m 2832.64,3575.74 c 0,-1.72 -1.4,-3.11 -3.11,-3.11 -1.71,0 -3.11,1.39 -3.11,3.11 0,1.72 1.4,3.11 3.11,3.11 1.71,0 3.11,-1.39 3.11,-3.11"
         style="fill:#f2575d;fill-opacity:1;fill-rule:nonzero;stroke:none"
         id="path72" />
      <path
         d="m 2875.82,3720.61 c 0,-1.72 -1.39,-3.11 -3.1,-3.11 -1.72,0 -3.12,1.39 -3.12,3.11 0,1.71 1.4,3.1 3.12,3.1 1.71,0 3.1,-1.39 3.1,-3.1"
         style="fill:#f2575d;fill-opacity:1;fill-rule:nonzero;stroke:none"
         id="path74" />
      <path
         d="m 2666.4,3507.42 h -38.43 v 209.15 c 0,49.23 -40.05,89.27 -89.27,89.27 -49.23,0 -89.29,-40.04 -89.29,-89.27 v -209.15 h -38.42 v 209.15 c 0,70.41 57.29,127.7 127.71,127.7 70.41,0 127.7,-57.29 127.7,-127.7 v -209.15"
         style="fill:#f2575d;fill-opacity:1;fill-rule:nonzero;stroke:none"
         id="path76" />
      <path
         d="m 2666.4,3600.45 h -38.43 v 116.12 c 0,34.25 -19.39,64.06 -47.76,79.02 -0.32,0.17 -0.63,0.33 -0.95,0.5 -12.18,6.23 -25.97,9.75 -40.56,9.75 -29.6,0 -55.88,-14.47 -72.13,-36.71 -0.28,-0.38 -0.56,-0.77 -0.84,-1.16 -10.28,-14.54 -16.32,-32.28 -16.32,-51.4 v -116.12 h -38.42 v 116.12 c 0,70.41 57.29,127.7 127.71,127.7 70.41,0 127.7,-57.29 127.7,-127.7 v -29.84 -1.11 -74.7 -1.72 -8.75"
         style="fill:#cc4341;fill-opacity:1;fill-rule:nonzero;stroke:none"
         id="path78" />
      <path
         d="m 2688.27,3379.62 h -299.16 c -12.44,0 -22.52,10.09 -22.52,22.52 v 175.79 c 0,12.44 10.08,22.52 22.52,22.52 h 299.16 c 12.44,0 22.52,-10.08 22.52,-22.52 v -175.79 c 0,-12.43 -10.08,-22.52 -22.52,-22.52"
         style="fill:#f2575d;fill-opacity:1;fill-rule:nonzero;stroke:none"
         id="path80" />
      <path
         d="m 2546.54,3448.25 h -15.7 v 43.01 c -12.05,3.43 -20.92,14.4 -20.92,27.55 0,15.89 12.89,28.77 28.78,28.77 15.88,0 28.76,-12.88 28.76,-28.77 0,-13.15 -8.87,-24.12 -20.92,-27.55 v -43.01"
         style="fill:#cc4341;fill-opacity:1;fill-rule:nonzero;stroke:none"
         id="path82" />
      <path
         d="m 2384.95,3400.57 c -0.8,0 -1.43,36.82 -1.43,82.24 0,45.44 0.63,82.25 1.43,82.25 0.79,0 1.42,-36.81 1.42,-82.25 0,-45.42 -0.63,-82.24 -1.42,-82.24"
         style="fill:#fafaf9;fill-opacity:1;fill-rule:nonzero;stroke:none"
         id="path84" />
      <path
         d="m 2516.16,3481.93 c -0.09,-0.14 -1.35,0.45 -3.37,1.91 -2.03,1.46 -4.73,3.94 -7.41,7.56 -5.38,7.04 -10.28,19.82 -7.09,33.62 3.34,13.77 13.45,23 21.41,26.88 4.02,2.03 7.55,3.04 10.01,3.43 2.47,0.4 3.86,0.37 3.88,0.2 0.12,-0.54 -5.46,-1.07 -12.92,-5.4 -7.35,-4.15 -16.53,-13.04 -19.6,-25.77 -2.95,-12.74 1.26,-24.81 5.97,-31.81 4.72,-7.22 9.47,-10.19 9.12,-10.62"
         style="fill:#fafaf9;fill-opacity:1;fill-rule:nonzero;stroke:none"
         id="path86" />
      <path
         d="m 3049.72,2992.56 h -1059.8 c -51.45,0 -93.17,41.72 -93.17,93.18 v 11.47 c 0,51.46 41.72,93.17 93.17,93.17 h 1059.8 c 51.46,0 93.17,-41.71 93.17,-93.17 v -11.47 c 0,-51.46 -41.71,-93.18 -93.17,-93.18"
         style="fill:#f3f2f1;fill-opacity:1;fill-rule:nonzero;stroke:none"
         id="path88" />
      <path
         d="m 3058.89,2721.32 h -1059.8 c -51.46,0 -93.17,41.71 -93.17,93.17 v 11.47 c 0,51.46 41.71,93.18 93.17,93.18 h 1059.8 c 51.46,0 93.16,-41.72 93.16,-93.18 v -11.47 c 0,-51.46 -41.7,-93.17 -93.16,-93.17"
         style="fill:#f3f2f1;fill-opacity:1;fill-rule:nonzero;stroke:none"
         id="path90" />
      <path
         d="m 2093.71,3093.03 v 28.65 h 11.84 v -28.21 c 0,-9.72 4.24,-13.74 11.4,-13.74 7.23,0 11.4,4.02 11.4,13.74 v 28.21 h 11.69 v -28.65 c 0,-15.06 -8.62,-23.39 -23.16,-23.39 -14.55,0 -23.17,8.33 -23.17,23.39"
         style="fill:#17282f;fill-opacity:1;fill-rule:nonzero;stroke:none"
         id="path92" />
      <path
         d="m 2147.14,3074.17 3.8,8.19 c 3.51,-2.27 8.84,-3.8 13.66,-3.8 5.27,0 7.24,1.39 7.24,3.58 0,6.43 -23.75,-0.15 -23.75,15.57 0,7.45 6.73,12.71 18.2,12.71 5.4,0 11.4,-1.24 15.13,-3.43 l -3.8,-8.11 c -3.88,2.19 -7.75,2.92 -11.33,2.92 -5.11,0 -7.31,-1.61 -7.31,-3.66 0,-6.72 23.76,-0.22 23.76,-15.71 0,-7.31 -6.8,-12.5 -18.57,-12.5 -6.66,0 -13.38,1.83 -17.03,4.24"
         style="fill:#17282f;fill-opacity:1;fill-rule:nonzero;stroke:none"
         id="path94" />
      <path
         d="m 2198.16,3093.61 h 19.36 c -0.8,4.97 -4.53,8.19 -9.64,8.19 -5.19,0 -8.92,-3.14 -9.72,-8.19 z m 29.89,-6.65 h -29.75 c 1.1,-4.89 5.26,-7.89 11.25,-7.89 4.17,0 7.17,1.24 9.88,3.8 l 6.06,-6.58 c -3.65,-4.17 -9.14,-6.36 -16.23,-6.36 -13.59,0 -22.44,8.56 -22.44,20.25 0,11.77 8.99,20.24 20.99,20.24 11.54,0 20.46,-7.74 20.46,-20.39 0,-0.87 -0.15,-2.11 -0.22,-3.07"
         style="fill:#17282f;fill-opacity:1;fill-rule:nonzero;stroke:none"
         id="path96" />
      <path
         d="m 2260.29,3110.42 v -10.52 c -0.96,0.07 -1.68,0.14 -2.56,0.14 -6.29,0 -10.46,-3.43 -10.46,-10.96 v -18.56 h -11.4 v 39.32 h 10.89 v -5.19 c 2.78,3.8 7.45,5.77 13.53,5.77"
         style="fill:#17282f;fill-opacity:1;fill-rule:nonzero;stroke:none"
         id="path98" />
      <path
         d="m 2307.28,3093.03 v -22.51 h -11.4 v 20.75 c 0,6.36 -2.93,9.29 -7.97,9.29 -5.47,0 -9.43,-3.36 -9.43,-10.6 v -19.44 h -11.4 v 39.32 h 10.89 v -4.61 c 3.07,3.37 7.68,5.19 13.01,5.19 9.29,0 16.3,-5.41 16.3,-17.39"
         style="fill:#17282f;fill-opacity:1;fill-rule:nonzero;stroke:none"
         id="path100" />
      <path
         d="m 2340.98,3082.94 v 4.02 h -7.82 c -5.33,0 -7.01,-1.97 -7.01,-4.6 0,-2.85 2.41,-4.75 6.42,-4.75 3.8,0 7.09,1.75 8.41,5.33 z m 11.4,10.01 v -22.43 h -10.67 v 4.9 c -2.12,-3.59 -6.21,-5.49 -11.99,-5.49 -9.21,0 -14.69,5.12 -14.69,11.92 0,6.94 4.9,11.76 16.89,11.76 h 9.06 c 0,4.9 -2.93,7.75 -9.06,7.75 -4.17,0 -8.48,-1.39 -11.33,-3.65 l -4.09,7.96 c 4.3,3.08 10.66,4.75 16.95,4.75 11.98,0 18.93,-5.55 18.93,-17.47"
         style="fill:#17282f;fill-opacity:1;fill-rule:nonzero;stroke:none"
         id="path102" />
      <path
         d="m 2429.13,3093.03 v -22.51 h -11.4 v 20.75 c 0,6.36 -2.85,9.29 -7.46,9.29 -5.12,0 -8.69,-3.29 -8.69,-10.31 v -19.73 h -11.41 v 20.75 c 0,6.36 -2.71,9.29 -7.45,9.29 -5.05,0 -8.63,-3.29 -8.63,-10.31 v -19.73 h -11.4 v 39.32 h 10.89 v -4.53 c 2.92,3.36 7.3,5.11 12.35,5.11 5.48,0 10.16,-2.11 12.94,-6.43 3.14,4.02 8.25,6.43 14.18,6.43 9.36,0 16.08,-5.41 16.08,-17.39"
         style="fill:#17282f;fill-opacity:1;fill-rule:nonzero;stroke:none"
         id="path104" />
      <path
         d="m 2448.21,3093.61 h 19.36 c -0.8,4.97 -4.53,8.19 -9.65,8.19 -5.18,0 -8.91,-3.14 -9.71,-8.19 z m 29.89,-6.65 h -29.75 c 1.1,-4.89 5.26,-7.89 11.25,-7.89 4.17,0 7.17,1.24 9.88,3.8 l 6.06,-6.58 c -3.65,-4.17 -9.14,-6.36 -16.23,-6.36 -13.59,0 -22.43,8.56 -22.43,20.25 0,11.77 8.98,20.24 20.98,20.24 11.54,0 20.45,-7.74 20.45,-20.39 0,-0.87 -0.14,-2.11 -0.21,-3.07"
         style="fill:#17282f;fill-opacity:1;fill-rule:nonzero;stroke:none"
         id="path106" />
      <path
         d="m 2527.37,3088.5 c 0,6.36 -3.88,9.94 -9.14,9.94 -5.34,0 -9.07,-3.73 -9.07,-9.94 0,-6.29 3.73,-10.09 9.07,-10.09 5.26,0 9.14,3.66 9.14,10.09 z m 26.08,2.04 c 0,-13.08 -5.99,-20.54 -14.98,-20.54 -4.97,0 -8.48,2.2 -10.01,6.37 -2.56,-4.1 -6.73,-6.37 -12.5,-6.37 -9.43,0 -16.88,7.46 -16.88,18.5 0,10.96 7.38,18.41 16.88,18.41 4.83,0 8.62,-1.68 11.26,-4.82 v 4.32 h 9.93 v -23.69 c 0,-3.51 1.55,-4.67 3.52,-4.67 3.36,0 5.41,3.87 5.41,12.35 0,14.83 -10.97,25.07 -27.2,25.07 -16.3,0 -27.19,-11.11 -27.19,-26.39 0,-15.56 10.68,-26.6 26.9,-26.6 4.61,0 9.79,0.95 14.4,3.21 l 2.34,-6.72 c -4.46,-2.27 -10.96,-3.51 -16.74,-3.51 -21.13,0 -35.08,14.33 -35.08,33.62 0,19.08 14.1,33.33 35.37,33.33 20.54,0 34.57,-13.52 34.57,-31.87"
         style="fill:#17282f;fill-opacity:1;fill-rule:nonzero;stroke:none"
         id="path108" />
      <path
         d="m 2628,3093.03 v -22.51 h -11.39 v 20.75 c 0,6.36 -2.86,9.29 -7.47,9.29 -5.11,0 -8.69,-3.29 -8.69,-10.31 v -19.73 h -11.4 v 20.75 c 0,6.36 -2.71,9.29 -7.45,9.29 -5.05,0 -8.64,-3.29 -8.64,-10.31 v -19.73 h -11.39 v 39.32 h 10.89 v -4.53 c 2.92,3.36 7.3,5.11 12.35,5.11 5.48,0 10.15,-2.11 12.94,-6.43 3.13,4.02 8.25,6.43 14.18,6.43 9.35,0 16.07,-5.41 16.07,-17.39"
         style="fill:#17282f;fill-opacity:1;fill-rule:nonzero;stroke:none"
         id="path110" />
      <path
         d="m 2661.63,3082.94 v 4.02 h -7.82 c -5.33,0 -7.01,-1.97 -7.01,-4.6 0,-2.85 2.41,-4.75 6.43,-4.75 3.8,0 7.09,1.75 8.4,5.33 z m 11.4,10.01 v -22.43 h -10.66 v 4.9 c -2.12,-3.59 -6.21,-5.49 -11.99,-5.49 -9.21,0 -14.69,5.12 -14.69,11.92 0,6.94 4.89,11.76 16.88,11.76 h 9.06 c 0,4.9 -2.92,7.75 -9.06,7.75 -4.17,0 -8.47,-1.39 -11.33,-3.65 l -4.09,7.96 c 4.31,3.08 10.67,4.75 16.96,4.75 11.98,0 18.92,-5.55 18.92,-17.47"
         style="fill:#17282f;fill-opacity:1;fill-rule:nonzero;stroke:none"
         id="path112" />
      <path
         d="m 2683.34,3109.84 h 11.4 v -39.32 h -11.4 z m -1.38,11.84 c 0,3.58 2.85,6.36 7.09,6.36 4.24,0 7.09,-2.63 7.09,-6.14 0,-3.8 -2.85,-6.58 -7.09,-6.58 -4.24,0 -7.09,2.78 -7.09,6.36"
         style="fill:#17282f;fill-opacity:1;fill-rule:nonzero;stroke:none"
         id="path114" />
      <path
         d="m 2705.35,3124.75 h 11.39 v -54.23 h -11.39 v 54.23"
         style="fill:#17282f;fill-opacity:1;fill-rule:nonzero;stroke:none"
         id="path116" />
      <path
         d="m 2724.56,3077.09 c 0,4.24 3.15,7.02 7.09,7.02 3.96,0 7.09,-2.78 7.09,-7.02 0,-4.16 -3.13,-7.16 -7.09,-7.16 -3.94,0 -7.09,3 -7.09,7.16"
         style="fill:#17282f;fill-opacity:1;fill-rule:nonzero;stroke:none"
         id="path118" />
      <path
         d="m 2743.05,3090.18 c 0,11.84 9.14,20.24 21.93,20.24 8.27,0 14.77,-3.58 17.62,-10.01 l -8.85,-4.75 c -2.12,3.73 -5.26,5.41 -8.84,5.41 -5.78,0 -10.31,-4.02 -10.31,-10.89 0,-6.87 4.53,-10.89 10.31,-10.89 3.58,0 6.72,1.61 8.84,5.41 l 8.85,-4.83 c -2.85,-6.28 -9.35,-9.94 -17.62,-9.94 -12.79,0 -21.93,8.41 -21.93,20.25"
         style="fill:#17282f;fill-opacity:1;fill-rule:nonzero;stroke:none"
         id="path120" />
      <path
         d="m 2817.39,3090.18 c 0,6.8 -4.31,10.89 -10.01,10.89 -5.71,0 -10.09,-4.09 -10.09,-10.89 0,-6.8 4.38,-10.89 10.09,-10.89 5.7,0 10.01,4.09 10.01,10.89 z m -31.64,0 c 0,11.84 9.13,20.24 21.63,20.24 12.5,0 21.56,-8.4 21.56,-20.24 0,-11.84 -9.06,-20.25 -21.56,-20.25 -12.5,0 -21.63,8.41 -21.63,20.25"
         style="fill:#17282f;fill-opacity:1;fill-rule:nonzero;stroke:none"
         id="path122" />
      <path
         d="m 2902.98,3093.03 v -22.51 h -11.39 v 20.75 c 0,6.36 -2.86,9.29 -7.47,9.29 -5.11,0 -8.69,-3.29 -8.69,-10.31 v -19.73 h -11.4 v 20.75 c 0,6.36 -2.71,9.29 -7.45,9.29 -5.05,0 -8.64,-3.29 -8.64,-10.31 v -19.73 h -11.39 v 39.32 h 10.89 v -4.53 c 2.92,3.36 7.3,5.11 12.35,5.11 5.48,0 10.16,-2.11 12.94,-6.43 3.13,4.02 8.25,6.43 14.18,6.43 9.35,0 16.07,-5.41 16.07,-17.39"
         style="fill:#17282f;fill-opacity:1;fill-rule:nonzero;stroke:none"
         id="path124" />
      <path
         d="m 2246.42,2819.16 18.51,-10.02 -8.32,-13.93 -18.69,11.04 0.35,-20.55 h -15.97 l 0.17,20.72 -18.68,-11.21 -8.15,13.93 18.51,10.02 -18.51,10.19 8.15,13.93 18.68,-11.21 -0.17,20.72 h 15.97 l -0.35,-20.72 18.69,11.21 8.32,-13.93 -18.51,-10.19"
         style="fill:#17282f;fill-opacity:1;fill-rule:nonzero;stroke:none"
         id="path126" />
      <path
         d="m 2323.49,2819.16 18.51,-10.02 -8.32,-13.93 -18.69,11.04 0.35,-20.55 h -15.97 l 0.17,20.72 -18.68,-11.21 -8.15,13.93 18.51,10.02 -18.51,10.19 8.15,13.93 18.68,-11.21 -0.17,20.72 h 15.97 l -0.35,-20.72 18.69,11.21 8.32,-13.93 -18.51,-10.19"
         style="fill:#17282f;fill-opacity:1;fill-rule:nonzero;stroke:none"
         id="path128" />
      <path
         d="m 2400.55,2819.16 18.51,-10.02 -8.32,-13.93 -18.69,11.04 0.35,-20.55 h -15.97 l 0.18,20.72 -18.69,-11.21 -8.15,13.93 18.52,10.02 -18.52,10.19 8.15,13.93 18.69,-11.21 -0.18,20.72 h 15.97 l -0.35,-20.72 18.69,11.21 8.32,-13.93 -18.51,-10.19"
         style="fill:#17282f;fill-opacity:1;fill-rule:nonzero;stroke:none"
         id="path130" />
      <path
         d="m 2477.62,2819.16 18.51,-10.02 -8.32,-13.93 -18.68,11.04 0.34,-20.55 h -15.97 l 0.18,20.72 -18.69,-11.21 -8.15,13.93 18.52,10.02 -18.52,10.19 8.15,13.93 18.69,-11.21 -0.18,20.72 h 15.97 l -0.34,-20.72 18.68,11.21 8.32,-13.93 -18.51,-10.19"
         style="fill:#17282f;fill-opacity:1;fill-rule:nonzero;stroke:none"
         id="path132" />
      <path
         d="m 2554.69,2819.16 18.51,-10.02 -8.32,-13.93 -18.68,11.04 0.34,-20.55 h -15.97 l 0.18,20.72 -18.69,-11.21 -8.15,13.93 18.52,10.02 -18.52,10.19 8.15,13.93 18.69,-11.21 -0.18,20.72 h 15.97 l -0.34,-20.72 18.68,11.21 8.32,-13.93 -18.51,-10.19"
         style="fill:#17282f;fill-opacity:1;fill-rule:nonzero;stroke:none"
         id="path134" />
      <path
         d="m 2631.76,2819.16 18.51,-10.02 -8.32,-13.93 -18.68,11.04 0.34,-20.55 h -15.97 l 0.18,20.72 -18.69,-11.21 -8.15,13.93 18.52,10.02 -18.52,10.19 8.15,13.93 18.69,-11.21 -0.18,20.72 h 15.97 l -0.34,-20.72 18.68,11.21 8.32,-13.93 -18.51,-10.19"
         style="fill:#17282f;fill-opacity:1;fill-rule:nonzero;stroke:none"
         id="path136" />
      <path
         d="m 2708.82,2819.16 18.51,-10.02 -8.32,-13.93 -18.68,11.04 0.34,-20.55 h -15.97 l 0.18,20.72 -18.68,-11.21 -8.16,13.93 18.52,10.02 -18.52,10.19 8.16,13.93 18.68,-11.21 -0.18,20.72 h 15.97 l -0.34,-20.72 18.68,11.21 8.32,-13.93 -18.51,-10.19"
         style="fill:#17282f;fill-opacity:1;fill-rule:nonzero;stroke:none"
         id="path138" />
      <path
         d="m 2785.89,2819.16 18.51,-10.02 -8.32,-13.93 -18.68,11.04 0.34,-20.55 h -15.97 l 0.18,20.72 -18.68,-11.21 -8.16,13.93 18.52,10.02 -18.52,10.19 8.16,13.93 18.68,-11.21 -0.18,20.72 h 15.97 l -0.34,-20.72 18.68,11.21 8.32,-13.93 -18.51,-10.19"
         style="fill:#17282f;fill-opacity:1;fill-rule:nonzero;stroke:none"
         id="path140" />
      <path
         d="M 3628.65,1368.86 H 2138.38 c -35.23,0 -63.78,28.55 -63.78,63.78 v 771.39 c 0,35.23 28.55,63.78 63.78,63.78 h 1490.27 c 35.22,0 63.78,-28.55 63.78,-63.78 v -771.39 c 0,-35.23 -28.56,-63.78 -63.78,-63.78"
         style="fill:#ffffff;fill-opacity:1;fill-rule:nonzero;stroke:none"
         id="path142" />
      <path
         d="m 3628.65,1368.86 c -0.02,0.28 4.34,-0.08 12.57,1.52 8.04,1.77 20.45,5.95 32.1,17.49 5.74,5.75 11.02,13.42 14.46,22.83 1.86,4.67 2.84,9.86 3.57,15.27 0.41,5.43 0.33,11.2 0.29,17.2 -0.06,24 -0.14,51.66 -0.23,82.8 -0.2,124.67 -0.48,304.92 -0.83,527.62 -0.03,27.85 -0.06,56.36 -0.09,85.5 -0.01,14.58 -0.03,29.31 -0.04,44.2 -0.36,14.9 1.58,30.16 -4.53,43.79 -5.51,13.65 -16.14,25.33 -29.57,32.06 -6.69,3.37 -14.03,5.53 -21.57,6.29 -7.43,0.57 -15.55,0.2 -23.37,0.3 -31.6,-0.03 -63.78,-0.05 -96.52,-0.08 -130.98,-0.07 -270.93,-0.15 -418.19,-0.23 -294.53,-0.07 -618.33,-0.14 -958.2,-0.21 -10.21,-0.05 -20.33,-2.63 -29.31,-7.4 -8.83,-4.97 -16.61,-11.95 -22.09,-20.48 -5.41,-8.53 -9.01,-18.32 -9.65,-28.41 -0.5,-10.11 -0.14,-20.93 -0.25,-31.32 0,-41.97 -0.01,-83.66 -0.01,-125.06 -0.01,-82.77 -0.03,-164.34 -0.04,-244.48 -0.02,-80.15 -0.04,-158.87 -0.06,-235.97 -0.02,-38.55 -0.03,-76.7 -0.05,-114.41 0.07,-9.37 -0.16,-18.95 0.15,-28.08 0.43,-9 2.85,-17.86 7.04,-25.79 8.42,-15.88 24.01,-27.52 41.36,-31.19 8.56,-2.02 17.71,-1.18 26.93,-1.38 9.14,0 18.27,0 27.36,-0.01 18.17,-0.01 36.24,-0.02 54.18,-0.03 35.88,-0.02 71.27,-0.04 106.16,-0.05 69.76,-0.05 137.51,-0.1 203,-0.13 130.97,-0.12 252.98,-0.22 364.36,-0.32 222.71,-0.35 402.94,-0.63 527.61,-0.83 62.22,-0.21 110.55,-0.38 143.44,-0.49 16.32,-0.11 28.8,-0.2 37.3,-0.26 8.41,-0.09 12.72,-0.26 12.72,-0.26 0,0 -4.31,-0.18 -12.72,-0.27 -8.5,-0.05 -20.98,-0.14 -37.3,-0.26 -32.89,-0.11 -81.22,-0.27 -143.44,-0.49 -124.67,-0.19 -304.9,-0.48 -527.61,-0.82 -111.38,-0.1 -233.39,-0.2 -364.36,-0.32 -65.49,-0.04 -133.24,-0.09 -203,-0.13 -34.89,-0.02 -70.28,-0.04 -106.16,-0.06 -17.94,-0.01 -36.01,-0.02 -54.18,-0.03 -9.09,0 -18.22,-0.01 -27.36,-0.01 -9.02,0.19 -18.44,-0.72 -27.93,1.45 -18.73,3.95 -35.54,16.48 -44.64,33.6 -4.52,8.56 -7.16,18.13 -7.62,27.85 -0.33,9.59 -0.1,18.83 -0.18,28.31 -0.01,37.71 -0.02,75.86 -0.04,114.41 -0.02,77.1 -0.04,155.82 -0.06,235.97 -0.01,80.14 -0.03,161.71 -0.04,244.48 0,41.4 -0.01,83.09 -0.01,125.06 0.12,10.57 -0.27,20.8 0.26,31.73 0.7,10.94 4.6,21.59 10.47,30.84 5.95,9.25 14.38,16.83 23.97,22.22 9.73,5.18 20.75,7.98 31.8,8.03 339.87,-0.07 663.67,-0.14 958.2,-0.21 147.26,-0.08 287.21,-0.16 418.19,-0.24 32.74,-0.02 64.92,-0.05 96.52,-0.07 7.96,-0.12 15.6,0.27 23.78,-0.35 8.04,-0.83 15.88,-3.14 23.01,-6.75 14.3,-7.2 25.61,-19.67 31.45,-34.22 2.97,-7.25 4.54,-15.03 4.67,-22.79 0.03,-7.54 0.05,-15.04 0.07,-22.5 -0.01,-14.89 -0.03,-29.62 -0.04,-44.2 -0.03,-29.14 -0.06,-57.65 -0.09,-85.5 -0.35,-222.7 -0.63,-402.95 -0.83,-527.62 -0.09,-31.14 -0.16,-58.8 -0.23,-82.8 -0.01,-5.98 0.04,-11.75 -0.43,-17.35 -0.79,-5.53 -1.83,-10.82 -3.77,-15.57 -3.6,-9.58 -9.05,-17.33 -14.93,-23.12 -11.98,-11.61 -24.6,-15.66 -32.75,-17.27 -4.17,-0.65 -7.33,-1.02 -9.47,-0.97 -2.13,-0.07 -3.2,-0.03 -3.2,-0.03"
         style="fill:#17282f;fill-opacity:1;fill-rule:nonzero;stroke:none"
         id="path144" />
      <path
         d="m 2638.26,1950.18 v -11.23 h -46.81 v 60.45 h 45.68 v -11.23 h -31.77 v -13.12 h 28.06 v -10.89 h -28.06 v -13.98 h 32.9"
         style="fill:#17282f;fill-opacity:1;fill-rule:nonzero;stroke:none"
         id="path146" />
      <path
         d="m 2704.87,1999.4 v -60.45 h -11.49 l -30.14,36.7 v -36.7 h -13.82 v 60.45 h 11.57 l 30.06,-36.7 v 36.7 h 13.82"
         style="fill:#17282f;fill-opacity:1;fill-rule:nonzero;stroke:none"
         id="path148" />
      <path
         d="m 2731.74,1988 h -19.34 v 11.4 h 52.68 V 1988 h -19.34 v -49.05 h -14 V 1988"
         style="fill:#17282f;fill-opacity:1;fill-rule:nonzero;stroke:none"
         id="path150" />
      <path
         d="m 2819.41,1950.18 v -11.23 h -46.81 v 60.45 h 45.69 v -11.23 h -31.78 v -13.12 h 28.06 v -10.89 h -28.06 v -13.98 h 32.9"
         style="fill:#17282f;fill-opacity:1;fill-rule:nonzero;stroke:none"
         id="path152" />
      <path
         d="m 2855.96,1988 h -11.4 v -21.08 h 11.4 c 8.56,0 12.87,3.98 12.87,10.54 0,6.65 -4.31,10.54 -12.87,10.54 z m 13.13,-49.05 -11.66,16.84 h -12.87 v -16.84 h -13.99 v 60.45 h 26.17 c 16.14,0 26.25,-8.37 26.25,-21.94 0,-9.06 -4.58,-15.71 -12.43,-19.08 l 13.55,-19.43 h -15.02"
         style="fill:#17282f;fill-opacity:1;fill-rule:nonzero;stroke:none"
         id="path154" />
      <path
         d="m 2914.71,1969.17 c 0,18.22 13.99,31.27 32.82,31.27 10.45,0 19.17,-3.8 24.88,-10.71 l -8.99,-8.29 c -4.06,4.66 -9.16,7.08 -15.2,7.08 -11.31,0 -19.35,-7.94 -19.35,-19.35 0,-11.4 8.04,-19.35 19.35,-19.35 6.04,0 11.14,2.43 15.2,7.17 l 8.99,-8.29 c -5.71,-6.99 -14.43,-10.79 -24.96,-10.79 -18.75,0 -32.74,13.04 -32.74,31.26"
         style="fill:#17282f;fill-opacity:1;fill-rule:nonzero;stroke:none"
         id="path156" />
      <path
         d="m 3028.73,1969.17 c 0,11.49 -8.11,19.35 -18.91,19.35 -10.79,0 -18.92,-7.86 -18.92,-19.35 0,-11.48 8.13,-19.35 18.92,-19.35 10.8,0 18.91,7.87 18.91,19.35 z m -51.99,0 c 0,17.97 14,31.27 33.08,31.27 19,0 33.07,-13.21 33.07,-31.27 0,-18.05 -14.07,-31.26 -33.07,-31.26 -19.08,0 -33.08,13.3 -33.08,31.26"
         style="fill:#17282f;fill-opacity:1;fill-rule:nonzero;stroke:none"
         id="path158" />
      <path
         d="m 3080.23,1950.43 c 12,0 19.86,7.17 19.86,18.74 0,11.57 -7.86,18.74 -19.86,18.74 h -12.78 v -37.48 z m -26.78,48.97 h 27.46 c 19.79,0 33.34,-11.92 33.34,-30.23 0,-18.31 -13.55,-30.22 -33.34,-30.22 h -27.46 v 60.45"
         style="fill:#17282f;fill-opacity:1;fill-rule:nonzero;stroke:none"
         id="path160" />
      <path
         d="m 3171.61,1950.18 v -11.23 h -46.8 v 60.45 h 45.68 v -11.23 h -31.78 v -13.12 h 28.07 v -10.89 h -28.07 v -13.98 h 32.9"
         style="fill:#17282f;fill-opacity:1;fill-rule:nonzero;stroke:none"
         id="path162" />
      <path
         d="m 2408.87,1534.7 h -146.83 c -21.83,0 -39.53,17.69 -39.53,39.52 v 228.68 c 0,21.84 17.7,39.52 39.53,39.52 h 146.83 c 21.83,0 39.52,-17.68 39.52,-39.52 v -228.68 c 0,-21.83 -17.69,-39.52 -39.52,-39.52"
         style="fill:#e7e8e5;fill-opacity:1;fill-rule:nonzero;stroke:none"
         id="path164" />
      <path
         d="m 2690.94,1534.7 h -146.83 c -21.83,0 -39.53,17.69 -39.53,39.52 v 228.68 c 0,21.84 17.7,39.52 39.53,39.52 h 146.83 c 21.83,0 39.52,-17.68 39.52,-39.52 v -228.68 c 0,-21.83 -17.69,-39.52 -39.52,-39.52"
         style="fill:#e7e8e5;fill-opacity:1;fill-rule:nonzero;stroke:none"
         id="path166" />
      <path
         d="m 2973.01,1534.7 h -146.82 c -21.84,0 -39.53,17.69 -39.53,39.52 v 228.68 c 0,21.84 17.69,39.52 39.53,39.52 h 146.82 c 21.84,0 39.52,-17.68 39.52,-39.52 v -228.68 c 0,-21.83 -17.68,-39.52 -39.52,-39.52"
         style="fill:#e7e8e5;fill-opacity:1;fill-rule:nonzero;stroke:none"
         id="path168" />
      <path
         d="m 3255.09,1534.7 h -146.83 c -21.83,0 -39.53,17.69 -39.53,39.52 v 228.68 c 0,21.84 17.7,39.52 39.53,39.52 h 146.83 c 21.83,0 39.52,-17.68 39.52,-39.52 v -228.68 c 0,-21.83 -17.69,-39.52 -39.52,-39.52"
         style="fill:#e7e8e5;fill-opacity:1;fill-rule:nonzero;stroke:none"
         id="path170" />
      <path
         d="m 3537.16,1534.7 h -146.83 c -21.83,0 -39.53,17.69 -39.53,39.52 v 228.68 c 0,21.84 17.7,39.52 39.53,39.52 h 146.83 c 21.83,0 39.52,-17.68 39.52,-39.52 v -228.68 c 0,-21.83 -17.69,-39.52 -39.52,-39.52"
         style="fill:#e7e8e5;fill-opacity:1;fill-rule:nonzero;stroke:none"
         id="path172" />
      <path
         d="m 2375.9,1664.62 c 0,17.16 -12.35,28.32 -32.61,28.32 -19.74,0 -33.31,-12.53 -33.31,-28.67 0,-14.07 11.85,-28.15 34.34,-28.15 18.71,0 31.58,11.16 31.58,28.5 z m 8.76,0.17 c 0,-21.98 -16.99,-36.23 -40,-36.23 -31.58,0 -48.23,22.66 -48.23,60.26 0,40.68 21.63,61.63 53.39,61.63 10.29,0 19.91,-1.72 27.29,-6.18 l -3.61,-7.04 c -6.17,3.94 -14.59,5.49 -23.68,5.49 -26.95,0 -44.64,-17.68 -44.64,-52.52 0,-3.61 0.18,-8.93 1.03,-14.43 4.99,15.79 20.08,24.72 38.29,24.72 24.03,0 40.16,-14.07 40.16,-35.7"
         style="fill:#f2575d;fill-opacity:1;fill-rule:nonzero;stroke:none"
         id="path174" />
      <path
         d="m 2663.71,1662.72 h -25.24 v -33.3 h -8.57 v 33.3 h -68.5 v 6.36 l 65.23,80.51 h 9.78 l -64.02,-79.14 h 57.67 v 29.35 h 8.41 v -29.35 h 25.24 v -7.73"
         style="fill:#f2575d;fill-opacity:1;fill-rule:nonzero;stroke:none"
         id="path176" />
      <path
         d="m 2954.62,1612.37 c 0,-1.44 -23.43,-2.6 -52.34,-2.6 -28.92,0 -52.35,1.16 -52.35,2.6 0,1.44 23.43,2.6 52.35,2.6 28.91,0 52.34,-1.16 52.34,-2.6"
         style="fill:#f2575d;fill-opacity:1;fill-rule:nonzero;stroke:none"
         id="path178" />
      <path
         d="m 2201.8,2178.11 c 0,-13.53 -10.97,-24.5 -24.49,-24.5 -13.53,0 -24.49,10.97 -24.49,24.5 0,13.52 10.96,24.49 24.49,24.49 13.52,0 24.49,-10.97 24.49,-24.49"
         style="fill:#17282f;fill-opacity:1;fill-rule:nonzero;stroke:none"
         id="path180" />
      <path
         d="m 2272.41,2178.11 c 0,-13.53 -10.97,-24.5 -24.5,-24.5 -13.53,0 -24.5,10.97 -24.5,24.5 0,13.52 10.97,24.49 24.5,24.49 13.53,0 24.5,-10.97 24.5,-24.49"
         style="fill:#17282f;fill-opacity:1;fill-rule:nonzero;stroke:none"
         id="path182" />
      <path
         d="m 2341.71,2178.11 c 0,-13.53 -10.96,-24.5 -24.49,-24.5 -13.53,0 -24.49,10.97 -24.49,24.5 0,13.52 10.96,24.49 24.49,24.49 13.53,0 24.49,-10.97 24.49,-24.49"
         style="fill:#17282f;fill-opacity:1;fill-rule:nonzero;stroke:none"
         id="path184" />
      <path
         d="m 3694.85,2109.08 c 0,-1.43 -362.22,-2.6 -808.94,-2.6 -446.87,0 -809.01,1.17 -809.01,2.6 0,1.45 362.14,2.61 809.01,2.61 446.72,0 808.94,-1.16 808.94,-2.61"
         style="fill:#17282f;fill-opacity:1;fill-rule:nonzero;stroke:none"
         id="path186" />
      <path
         d="M 1877.67,3371.52 H 1098.7 c -22.38,0 -40.52,-18.14 -40.52,-40.51 v -354.87 c 0,-22.38 18.14,-40.52 40.52,-40.52 h 326.79 l 69.41,-89.01 57.84,89.01 h 324.93 c 22.37,0 40.51,18.14 40.51,40.52 v 354.87 c 0,22.37 -18.14,40.51 -40.51,40.51"
         style="fill:#ffffff;fill-opacity:1;fill-rule:nonzero;stroke:none"
         id="path188" />
      <path
         d="m 1877.67,3371.52 c 0,0 1.29,0.07 3.85,0.01 2.52,-0.26 6.39,-0.62 11.1,-2.47 4.69,-1.78 10.36,-4.89 15.42,-10.42 5.12,-5.38 9.46,-13.38 10.67,-23.16 0.74,-38.65 0.61,-94.84 0.93,-166.03 0.09,-35.59 0.19,-74.88 0.3,-117.52 0.04,-21.32 0.08,-43.48 0.13,-66.43 -0.1,-5.66 0.43,-11.56 -0.79,-17.68 -1.17,-6.01 -3.74,-11.78 -7.42,-16.79 -7.25,-10.11 -19.4,-16.86 -32.3,-17.33 -98,-0.15 -207.91,-0.31 -326.82,-0.48 l 2.02,1.09 c -18.16,-27.99 -37.78,-58.22 -57.78,-89.05 l -1.9,-2.92 -2.14,2.74 c -21.92,28.08 -45.49,58.27 -69.45,88.97 l 2,-0.97 c -90.01,-0.02 -184.2,-0.04 -280.84,-0.06 -11.28,0 -22.53,0 -33.74,0 -5.7,0.1 -10.98,-0.25 -17.07,0.29 -5.92,0.66 -11.67,2.58 -16.79,5.58 -10.26,5.94 -17.84,16.23 -20.39,27.76 -1.39,5.83 -1.01,11.69 -1.07,17.06 v 16.5 c 0.01,43.95 0.03,87.25 0.04,129.79 0.02,42.55 0.04,84.34 0.07,125.27 0.01,20.47 0.02,40.72 0.04,60.74 l 0.01,14.97 c 0.03,5.27 1,10.52 2.9,15.41 3.75,9.81 11.19,18.01 20.4,22.75 4.6,2.36 9.62,3.94 14.73,4.47 5.25,0.48 9.92,0.23 14.78,0.29 9.66,-0.01 19.24,-0.02 28.77,-0.03 19.04,-0.02 37.84,-0.04 56.36,-0.06 37.03,-0.04 72.99,-0.08 107.76,-0.13 69.52,-0.11 134.29,-0.22 193.43,-0.32 118.13,-0.34 213.78,-0.63 280.08,-0.82 32.94,-0.22 58.56,-0.38 76.15,-0.49 8.58,-0.11 15.17,-0.2 19.81,-0.26 4.46,-0.09 6.75,-0.27 6.75,-0.27 0,0 -2.29,-0.18 -6.75,-0.26 -4.64,-0.06 -11.23,-0.15 -19.81,-0.26 -17.59,-0.11 -43.2,-0.28 -76.15,-0.49 -66.3,-0.2 -161.95,-0.48 -280.08,-0.83 -59.14,-0.09 -123.91,-0.2 -193.43,-0.31 -34.77,-0.05 -70.73,-0.09 -107.76,-0.14 -18.52,-0.02 -37.32,-0.04 -56.36,-0.06 -9.53,0 -19.11,-0.01 -28.77,-0.02 -4.78,-0.06 -9.81,0.15 -14.23,-0.28 -4.56,-0.48 -9,-1.89 -13.08,-4 -8.17,-4.22 -14.77,-11.52 -18.08,-20.22 -1.67,-4.33 -2.53,-8.98 -2.56,-13.67 l 0.02,-14.97 c 0.01,-20.02 0.02,-40.27 0.04,-60.74 0.02,-40.93 0.04,-82.72 0.06,-125.27 0.02,-42.54 0.03,-85.84 0.04,-129.79 l 0.01,-16.5 c 0.05,-5.63 -0.27,-10.94 0.95,-15.93 2.24,-10.11 8.91,-19.18 17.94,-24.4 4.5,-2.63 9.55,-4.32 14.75,-4.9 5.04,-0.47 10.98,-0.17 16.49,-0.26 11.21,0 22.46,0 33.74,0 96.64,-0.02 190.83,-0.04 280.84,-0.06 h 1.24 l 0.76,-0.98 c 23.94,-30.72 47.47,-60.94 69.36,-89.04 l -4.03,-0.18 c 20.05,30.8 39.7,61 57.91,88.97 l 0.71,1.09 h 1.3 c 118.85,-0.1 228.69,-0.21 326.64,-0.3 11.68,0.39 22.71,6.46 29.34,15.62 3.35,4.54 5.71,9.77 6.79,15.22 1.12,5.38 0.67,11.16 0.78,16.94 0.05,22.95 0.09,45.11 0.13,66.43 0.11,42.64 0.21,81.93 0.3,117.52 0.19,70.99 0.34,127.21 0.44,165.87 -1.04,9.41 -5.11,17.21 -10,22.53 -4.81,5.46 -10.28,8.6 -14.83,10.47 -9.27,3.66 -14.75,2.79 -14.66,3.2"
         style="fill:#17282f;fill-opacity:1;fill-rule:nonzero;stroke:none"
         id="path190" />
      <path
         d="m 1342.33,3271.38 v -13.13 h -8.58 v 13.23 l -14.35,23.83 h 9.11 l 9.9,-16.47 9.9,16.47 h 8.42 l -14.4,-23.93"
         style="fill:#17282f;fill-opacity:1;fill-rule:nonzero;stroke:none"
         id="path192" />
      <path
         d="m 1388.32,3276.78 c 0,7.04 -4.97,11.86 -11.59,11.86 -6.62,0 -11.6,-4.82 -11.6,-11.86 0,-7.04 4.98,-11.86 11.6,-11.86 6.62,0 11.59,4.82 11.59,11.86 z m -31.87,0 c 0,11.01 8.58,19.16 20.28,19.16 11.65,0 20.28,-8.09 20.28,-19.16 0,-11.07 -8.63,-19.17 -20.28,-19.17 -11.7,0 -20.28,8.16 -20.28,19.17"
         style="fill:#17282f;fill-opacity:1;fill-rule:nonzero;stroke:none"
         id="path194" />
      <path
         d="m 1403.19,3274.56 v 20.75 h 8.58 v -20.44 c 0,-7.04 3.07,-9.95 8.26,-9.95 5.24,0 8.26,2.91 8.26,9.95 v 20.44 h 8.47 v -20.75 c 0,-10.91 -6.25,-16.95 -16.79,-16.95 -10.53,0 -16.78,6.04 -16.78,16.95"
         style="fill:#17282f;fill-opacity:1;fill-rule:nonzero;stroke:none"
         id="path196" />
      <path
         d="m 1460.84,3288.33 h -6.98 v -12.92 h 6.98 c 5.25,0 7.89,2.43 7.89,6.45 0,4.08 -2.64,6.47 -7.89,6.47 z m 8.05,-30.08 -7.15,10.32 h -7.88 v -10.32 h -8.58 v 37.06 h 16.04 c 9.9,0 16.1,-5.14 16.1,-13.45 0,-5.56 -2.81,-9.64 -7.63,-11.7 l 8.31,-11.91 h -9.21"
         style="fill:#17282f;fill-opacity:1;fill-rule:nonzero;stroke:none"
         id="path198" />
      <path
         d="m 1496.9,3276.78 c 0,11.17 8.58,19.16 20.12,19.16 6.41,0 11.75,-2.32 15.25,-6.56 l -5.51,-5.08 c -2.49,2.85 -5.61,4.34 -9.32,4.34 -6.93,0 -11.86,-4.88 -11.86,-11.86 0,-6.99 4.93,-11.86 11.86,-11.86 3.71,0 6.83,1.48 9.32,4.39 l 5.51,-5.08 c -3.5,-4.29 -8.84,-6.62 -15.3,-6.62 -11.49,0 -20.07,8 -20.07,19.17"
         style="fill:#17282f;fill-opacity:1;fill-rule:nonzero;stroke:none"
         id="path200" />
      <path
         d="m 1566.83,3276.78 c 0,7.04 -4.98,11.86 -11.6,11.86 -6.61,0 -11.59,-4.82 -11.59,-11.86 0,-7.04 4.98,-11.86 11.59,-11.86 6.62,0 11.6,4.82 11.6,11.86 z m -31.87,0 c 0,11.01 8.57,19.16 20.27,19.16 11.65,0 20.28,-8.09 20.28,-19.16 0,-11.07 -8.63,-19.17 -20.28,-19.17 -11.7,0 -20.27,8.16 -20.27,19.17"
         style="fill:#17282f;fill-opacity:1;fill-rule:nonzero;stroke:none"
         id="path202" />
      <path
         d="m 1598.43,3265.29 c 7.36,0 12.18,4.39 12.18,11.49 0,7.09 -4.82,11.49 -12.18,11.49 h -7.84 v -22.98 z m -16.41,30.02 h 16.83 c 12.13,0 20.44,-7.31 20.44,-18.53 0,-11.23 -8.31,-18.53 -20.44,-18.53 h -16.83 v 37.06"
         style="fill:#17282f;fill-opacity:1;fill-rule:nonzero;stroke:none"
         id="path204" />
      <path
         d="m 1654.49,3265.13 v -6.88 h -28.7 v 37.06 h 28.01 v -6.89 h -19.48 v -8.04 h 17.21 v -6.67 h -17.21 v -8.58 h 20.17"
         style="fill:#17282f;fill-opacity:1;fill-rule:nonzero;stroke:none"
         id="path206" />
      <path
         d="M 1801.66,3015.97 H 1174.7 c -19.58,0 -35.45,15.87 -35.45,35.45 v 132.45 c 0,19.58 15.87,35.45 35.45,35.45 h 626.96 c 19.58,0 35.46,-15.87 35.46,-35.45 v -132.45 c 0,-19.58 -15.88,-35.45 -35.46,-35.45"
         style="fill:#f3f2f1;fill-opacity:1;fill-rule:nonzero;stroke:none"
         id="path208" />
      <path
         d="m 1273.94,3105.04 c 0,14.08 -10.13,23.22 -26.73,23.22 -16.18,0 -27.29,-10.27 -27.29,-23.5 0,-11.53 9.7,-23.07 28.13,-23.07 15.34,0 25.89,9.15 25.89,23.35 z m 7.17,0.15 c 0,-18.01 -13.92,-29.69 -32.78,-29.69 -25.88,0 -39.53,18.58 -39.53,49.39 0,33.34 17.73,50.5 43.75,50.5 8.45,0 16.33,-1.41 22.38,-5.06 l -2.96,-5.77 c -5.07,3.23 -11.96,4.5 -19.42,4.5 -22.08,0 -36.57,-14.49 -36.57,-43.05 0,-2.96 0.14,-7.31 0.84,-11.82 4.08,12.94 16.46,20.26 31.37,20.26 19.7,0 32.92,-11.53 32.92,-29.26"
         style="fill:#f2575d;fill-opacity:1;fill-rule:nonzero;stroke:none"
         id="path210" />
      <path
         d="m 1411.83,3103.5 h -20.68 v -27.29 h -7.03 v 27.29 h -56.14 v 5.21 l 53.46,65.97 h 8.02 l -52.47,-64.85 h 47.27 v 24.06 h 6.89 v -24.06 h 20.68 v -6.33"
         style="fill:#f2575d;fill-opacity:1;fill-rule:nonzero;stroke:none"
         id="path212" />
      <path
         d="m 1521.17,3103.92 c 0,-16.32 -11.82,-28.42 -34.47,-28.42 -14.49,0 -27.86,5.34 -34.75,13.23 l 3.66,5.48 c 6.05,-6.89 17.58,-12.1 31.09,-12.1 17.73,0 27.15,8.44 27.15,21.81 0,13.22 -9,21.81 -28.7,21.81 h -6.19 v 5.2 l 29.13,37.29 h -52.48 v 6.46 h 61.76 v -5.06 l -29.54,-37.85 c 22.36,-0.55 33.34,-11.81 33.34,-27.85"
         style="fill:#f2575d;fill-opacity:1;fill-rule:nonzero;stroke:none"
         id="path214" />
      <path
         d="m 1640.21,3174.68 v -5.06 l -42.35,-93.41 h -7.88 l 41.93,92.01 h -55.29 v -18.86 h -7.04 v 25.32 h 70.63"
         style="fill:#f2575d;fill-opacity:1;fill-rule:nonzero;stroke:none"
         id="path216" />
      <path
         d="m 1760.38,3125.44 c 0,27.44 -12.81,43.33 -31.38,43.33 -18.57,0 -31.37,-15.89 -31.37,-43.33 0,-27.43 12.8,-43.33 31.37,-43.33 18.57,0 31.38,15.9 31.38,43.33 z m -69.93,0 c 0,30.81 15.9,49.95 38.55,49.95 22.65,0 38.55,-19.14 38.55,-49.95 0,-30.81 -15.9,-49.94 -38.55,-49.94 -22.65,0 -38.55,19.13 -38.55,49.94"
         style="fill:#f2575d;fill-opacity:1;fill-rule:nonzero;stroke:none"
         id="path218" />
      <path
         d="M 3834.71,549.898 C 3965.63,605.48 4117.2,714.801 4184.82,848.84 4043.6,792.102 3919.08,685.77 3834.71,549.898"
         style="fill:#17282f;fill-opacity:1;fill-rule:nonzero;stroke:none"
         id="path220" />
      <path
         d="m 3862.55,757.922 c 130.92,55.566 282.49,164.879 350.11,298.938 -141.22,-56.74 -265.74,-163.071 -350.11,-298.938"
         style="fill:#17282f;fill-opacity:1;fill-rule:nonzero;stroke:none"
         id="path222" />
      <path
         d="m 3900.43,960.25 c 130.92,55.57 282.49,164.89 350.11,298.93 -141.22,-56.73 -265.75,-163.06 -350.11,-298.93"
         style="fill:#17282f;fill-opacity:1;fill-rule:nonzero;stroke:none"
         id="path224" />
      <path
         d="m 3947.92,1172.06 c 123.51,73.29 261.18,202.66 312.47,344.77 -133.6,-75.88 -244.74,-198.52 -312.47,-344.77"
         style="fill:#17282f;fill-opacity:1;fill-rule:nonzero;stroke:none"
         id="path226" />
      <path
         d="m 3998.67,1334.14 c 90,117.73 173.89,292.88 172.79,444.68 -98.54,-124.22 -159.99,-282.38 -172.79,-444.68"
         style="fill:#17282f;fill-opacity:1;fill-rule:nonzero;stroke:none"
         id="path228" />
      <path
         d="m 3973.5,1257.09 c -18.17,159.16 -80.1,359.3 -185.21,478.66 16.7,-170.55 82.57,-340.81 185.21,-478.66"
         style="fill:#17282f;fill-opacity:1;fill-rule:nonzero;stroke:none"
         id="path230" />
      <path
         d="m 3931.19,1082.98 c -32.05,164.11 -113.04,367.08 -232.39,482.2 31.43,-176.11 114.08,-347.61 232.39,-482.2"
         style="fill:#17282f;fill-opacity:1;fill-rule:nonzero;stroke:none"
         id="path232" />
      <path
         d="m 3882.56,870.66 c -32.03,164.12 -113.02,367.08 -232.38,482.19 31.44,-176.1 114.09,-347.61 232.38,-482.19"
         style="fill:#17282f;fill-opacity:1;fill-rule:nonzero;stroke:none"
         id="path234" />
      <path
         d="m 3843.56,609.988 c -32.03,164.114 -113.03,367.082 -232.38,482.192 31.43,-176.098 114.09,-347.61 232.38,-482.192"
         style="fill:#17282f;fill-opacity:1;fill-rule:nonzero;stroke:none"
         id="path236" />
      <path
         d="m 4004.76,1365.33 c -0.08,0.03 -0.42,-0.8 -1.01,-2.45 -0.65,-1.93 -1.47,-4.34 -2.49,-7.34 -2.18,-6.87 -5.22,-16.36 -9.07,-28.39 -7.87,-24.67 -18.51,-60.59 -30.97,-105.17 -12.54,-44.56 -26.33,-97.94 -40.56,-157.47 -13.98,-59.59 -28.21,-125.369 -41.35,-194.78 -12.97,-69.468 -23.56,-135.949 -32.19,-196.558 -8.38,-60.641 -14.88,-115.391 -19.39,-161.461 -4.59,-46.063 -7.73,-83.391 -9.36,-109.223 -0.79,-12.609 -1.41,-22.547 -1.87,-29.75 -0.14,-3.148 -0.26,-5.699 -0.35,-7.738 -0.05,-1.75 -0.04,-2.648 0.05,-2.648 0.08,-0.012 0.24,0.878 0.46,2.609 0.24,2.027 0.52,4.57 0.87,7.711 0.69,7.168 1.62,17.09 2.83,29.66 2.24,25.777 5.92,63.027 10.96,109.008 4.97,45.969 11.85,100.621 20.47,161.172 8.87,60.508 19.6,126.886 32.55,196.269 13.12,69.34 27.21,135.069 40.91,194.659 13.96,59.53 27.37,112.95 39.46,157.6 12,44.65 22.11,80.71 29.39,105.53 3.45,12.15 6.18,21.73 8.15,28.66 0.82,3.06 1.47,5.52 2,7.5 0.42,1.69 0.6,2.58 0.51,2.6"
         style="fill:#17282f;fill-opacity:1;fill-rule:nonzero;stroke:none"
         id="path238" />
      <path
         d="m 3770.93,463.219 c 55.51,116.269 95.89,279.73 68.63,407.34 -61.57,-123.36 -85.98,-268.25 -68.63,-407.34"
         style="fill:#33535f;fill-opacity:1;fill-rule:nonzero;stroke:none"
         id="path240" />
      <path
         d="m 3678.58,613.77 c 55.51,116.269 95.9,279.742 68.64,407.33 -61.58,-123.362 -86,-268.241 -68.64,-407.33"
         style="fill:#33535f;fill-opacity:1;fill-rule:nonzero;stroke:none"
         id="path242" />
      <path
         d="m 3595.77,766.859 c 55.5,116.27 95.89,279.721 68.63,407.331 -61.57,-123.36 -85.99,-268.241 -68.63,-407.331"
         style="fill:#33535f;fill-opacity:1;fill-rule:nonzero;stroke:none"
         id="path244" />
      <path
         d="m 3514.15,931.93 c 41.29,123.08 62.01,290.82 19.88,413.56 -46.48,-130.95 -53.55,-278.05 -19.88,-413.56"
         style="fill:#33535f;fill-opacity:1;fill-rule:nonzero;stroke:none"
         id="path246" />
      <path
         d="m 3461.06,1067.13 c -4.05,130.94 -42.57,294.93 -123.87,391.6 1.96,-140.35 46.03,-279.64 123.87,-391.6"
         style="fill:#33535f;fill-opacity:1;fill-rule:nonzero;stroke:none"
         id="path248" />
      <path
         d="m 3485.63,1002.23 c -96.3,90.87 -242.75,181.08 -374.38,192.89 101.39,-99.09 234.54,-167.71 374.38,-192.89"
         style="fill:#33535f;fill-opacity:1;fill-rule:nonzero;stroke:none"
         id="path250" />
      <path
         d="m 3550.57,864.5 c -107.92,85.52 -268.26,165.8 -406.87,166.11 113.89,-93.579 258.62,-152.661 406.87,-166.11"
         style="fill:#33535f;fill-opacity:1;fill-rule:nonzero;stroke:none"
         id="path252" />
      <path
         d="M 3631.72,698.398 C 3523.79,783.91 3363.45,864.191 3224.85,864.5 3338.74,770.93 3483.46,711.852 3631.72,698.398"
         style="fill:#33535f;fill-opacity:1;fill-rule:nonzero;stroke:none"
         id="path254" />
      <path
         d="M 3744.78,507.211 C 3636.85,592.719 3476.51,673 3337.9,673.309 3451.8,579.738 3596.52,520.648 3744.78,507.211"
         style="fill:#33535f;fill-opacity:1;fill-rule:nonzero;stroke:none"
         id="path256" />
      <path
         d="m 3448.46,1090.9 c -0.08,-0.04 0.13,-0.77 0.61,-2.17 0.6,-1.66 1.33,-3.68 2.23,-6.16 2.21,-5.76 5.23,-13.62 9.04,-23.54 7.85,-20.44 19.87,-49.75 35.29,-85.741 30.81,-71.98 76.43,-170.18 133.13,-275.391 28.44,-52.578 56.89,-101.898 83.56,-146.289 26.91,-44.238 51.83,-83.648 73.57,-116.218 21.63,-32.629 39.6,-58.719 52.4,-76.481 6.23,-8.621 11.15,-15.43 14.76,-20.43 1.59,-2.109 2.88,-3.832 3.95,-5.25 0.9,-1.16 1.4,-1.742 1.47,-1.691 0.07,0.051 -0.29,0.723 -1.07,1.981 -0.95,1.492 -2.11,3.308 -3.54,5.519 -3.43,5.133 -8.1,12.121 -14,20.949 -12.32,18.09 -29.84,44.453 -51.09,77.301 -21.34,32.77 -45.93,72.332 -72.59,116.641 -26.43,44.449 -54.72,93.781 -83.12,146.281 -56.62,105.07 -102.68,202.898 -134.28,274.461 -15.8,35.778 -28.3,64.868 -36.69,85.078 -4.17,9.76 -7.46,17.51 -9.88,23.18 -1.07,2.41 -1.96,4.37 -2.68,5.99 -0.63,1.33 -0.99,2.01 -1.07,1.98"
         style="fill:#17282f;fill-opacity:1;fill-rule:nonzero;stroke:none"
         id="path258" />
      <path
         d="m 3506.51,449.191 h 551.6 v -106.32 h -56.68 L 3953.69,39.6719 h -340.96 l -49.09,303.1991 h -57.13 v 106.32"
         style="fill:#f2575d;fill-opacity:1;fill-rule:nonzero;stroke:none"
         id="path260" />
      <path
         d="m 3506.51,345.102 c 0,1.398 122.6,2.558 273.79,2.558 151.25,0 273.83,-1.16 273.83,-2.558 0,-1.422 -122.58,-2.571 -273.83,-2.571 -151.19,0 -273.79,1.149 -273.79,2.571"
         style="fill:#17282f;fill-opacity:1;fill-rule:nonzero;stroke:none"
         id="path262" />
      <path
         d="M 346.828,39.4883 H 257.301 L 224.102,442.52 H 329.531 L 346.828,39.4883"
         style="fill:#17282f;fill-opacity:1;fill-rule:nonzero;stroke:none"
         id="path264" />
      <path
         d="m 1122.74,39.4883 h 89.53 l 33.2,403.0317 h -105.43 l -17.3,-403.0317"
         style="fill:#17282f;fill-opacity:1;fill-rule:nonzero;stroke:none"
         id="path266" />
      <path
         d="M 1306.99,391.488 154.621,364.441 119.551,1108.76 c -3.434,72.87 54.726,133.84 127.687,133.84 h 981.822 c 74.08,0 132.66,-62.78 127.53,-136.68 l -49.6,-714.432"
         style="fill:#f2575d;fill-opacity:1;fill-rule:nonzero;stroke:none"
         id="path268" />
      <path
         d="m 1366.07,1111.3 c 0,-0.09 -1.09,-0.18 -3.21,-0.27 -2.41,-0.07 -5.53,-0.17 -9.45,-0.29 -8.65,-0.12 -20.82,-0.31 -36.32,-0.54 -31.9,-0.11 -77.45,-0.28 -133.59,-0.48 -112.79,-0.19 -268.629,1.08 -440.625,-2.91 -172.086,-5.72 -328.047,-4.74 -440.82,-3.03 -56.399,0.89 -102.032,1.99 -133.555,2.94 -15.492,0.53 -27.656,0.95 -36.305,1.24 -3.914,0.19 -7.023,0.34 -9.433,0.46 -2.121,0.13 -3.211,0.24 -3.211,0.34 0.004,0.09 1.094,0.15 3.222,0.2 2.411,0 5.528,0.02 9.45,0.04 8.644,-0.05 20.812,-0.14 36.316,-0.26 31.887,-0.3 77.426,-0.74 133.559,-1.28 112.785,-0.77 268.586,-1.16 440.652,4.55 172.129,4 327.98,2.14 440.76,1.39 56.14,-0.49 101.68,-0.89 133.58,-1.17 15.5,-0.19 27.67,-0.34 36.32,-0.43 3.92,-0.1 7.03,-0.18 9.45,-0.24 2.12,-0.09 3.21,-0.16 3.21,-0.26"
         style="fill:#17282f;fill-opacity:1;fill-rule:nonzero;stroke:none"
         id="path270" />
      <path
         d="m 539.902,1230.97 c 0.317,-1.74 -36.109,-2.37 -74.82,-22.45 -39,-19.57 -60.875,-48.7 -62.094,-47.42 -0.461,0.34 4.262,8.01 14.274,18.52 9.949,10.5 25.664,23.4 45.453,33.53 19.812,10.07 39.476,15.23 53.816,17.12 14.387,1.95 23.364,1.26 23.371,0.7"
         style="fill:#17282f;fill-opacity:1;fill-rule:nonzero;stroke:none"
         id="path272" />
      <path
         d="m 1013.86,2584.25 140.88,-257.32 206.36,115.42 100.35,-33.12 c 0,0 -253.18,-274.5 -294.26,-288.49 -41.07,-13.98 -118.86,-16.53 -163.34,39.12 -40.502,50.67 -158.358,316.75 -158.358,316.75 l 168.368,107.64"
         style="fill:#f8a58d;fill-opacity:1;fill-rule:nonzero;stroke:none"
         id="path274" />
      <path
         d="m 1593.8,2752.23 c -3.67,4.54 -9.45,6.83 -15.23,6.04 l -98.13,-13.5 c -8.6,-1.33 -16.24,-6.26 -20.99,-13.56 l -203.79,-313.22 15.67,-8.76 108.52,3.42 217.04,335.76 -3.09,3.82"
         style="fill:#17282f;fill-opacity:1;fill-rule:nonzero;stroke:none"
         id="path276" />
      <path
         d="m 1524.34,2711.55 c 2.09,-1.83 5.77,-1.06 8.22,1.73 2.44,2.79 2.73,6.54 0.64,8.37 -2.1,1.84 -5.77,1.06 -8.22,-1.73 -2.45,-2.79 -2.73,-6.54 -0.64,-8.37"
         style="fill:#ffffff;fill-opacity:1;fill-rule:nonzero;stroke:none"
         id="path278" />
      <path
         d="m 1596.89,2748.41 c 0.05,-0.41 -6.71,-1.72 -18.97,-3.76 -13.27,-2.05 -30.8,-4.77 -52.01,-8.05 -11.09,-1.63 -23.11,-3.39 -35.95,-5.28 -6.18,-0.56 -11.67,-3.75 -15.17,-8.93 -3.77,-5.85 -7.64,-11.85 -11.61,-18.01 -16.05,-24.74 -33.61,-51.81 -52.04,-80.21 -37.07,-56.85 -70.9,-108.12 -95.63,-145.06 -12.05,-17.78 -22.01,-32.47 -29.55,-43.59 -7.09,-10.22 -11.17,-15.76 -11.51,-15.54 -0.34,0.22 3.09,6.19 9.58,16.8 7.14,11.37 16.57,26.42 27.98,44.61 23.84,37.53 57.12,89.16 94.19,146 18.56,28.32 36.26,55.3 52.43,79.96 4.05,6.14 8.01,12.13 11.87,17.96 4.3,6.43 11.83,10.37 18.67,10.85 12.89,1.63 24.97,3.16 36.1,4.57 21.34,2.53 38.98,4.62 52.33,6.2 12.37,1.33 19.24,1.88 19.29,1.48"
         style="fill:#33535f;fill-opacity:1;fill-rule:nonzero;stroke:none"
         id="path280" />
      <path
         d="m 1488.03,2636.43 c 0,0 -8.75,1.57 -13.54,-22.36 -4.78,-23.93 -20.21,-92.56 -20.21,-92.56 l -45.83,24.35 -57.34,-7.47 c 0,0 -12.51,-11.55 -3.33,-17.83 9.17,-6.27 45.41,-12.75 45.41,-12.75 l 26.73,-38.43 -76.71,36.98 c 0,0 -25.59,-6.67 -18.1,-22.29 7.5,-15.62 59.22,-64.49 59.22,-64.49 l -38.43,2.91 -45.7,27.75 c 0,0 -14.02,-0.64 -8.78,-12.58 5.22,-11.94 52.74,-55.09 52.74,-55.09 l 57.64,-27.97 c 0,0 31.45,2.47 34.47,11.71 3.02,9.25 3.79,22.42 3.79,22.42 0,0 16.7,4.5 19.82,12.6 3.12,8.1 1.11,20.92 1.11,20.92 0,0 26.22,-4.6 29.47,10.01 3.25,14.61 0.52,43.39 -2.12,54.64 -2.65,11.24 11.17,115.71 10.1,118.87 -1.07,3.16 6.03,37.57 -10.41,30.66"
         style="fill:#f8a58d;fill-opacity:1;fill-rule:nonzero;stroke:none"
         id="path282" />
      <path
         d="m 1438.29,2366.19 c 0.19,-0.68 -5.38,-3.12 -15.03,-4.67 -9.62,-1.56 -23.38,-1.72 -37.99,1.73 -14.59,3.49 -26.81,9.84 -34.69,15.56 -7.93,5.73 -11.8,10.42 -11.32,10.94 1.09,1.49 19.34,-14.33 47.38,-20.76 27.91,-6.88 51.34,-0.98 51.65,-2.8"
         style="fill:#f68260;fill-opacity:1;fill-rule:nonzero;stroke:none"
         id="path284" />
      <path
         d="m 1424.64,2386.87 c -0.9,-1.34 -11.11,4.01 -22.01,12.97 -10.92,8.93 -18.16,17.9 -17.04,19.04 1.16,1.18 10.09,-5.73 20.79,-14.48 10.67,-8.77 19.2,-16.17 18.26,-17.53"
         style="fill:#f68260;fill-opacity:1;fill-rule:nonzero;stroke:none"
         id="path286" />
      <path
         d="m 1454.96,2436.58 c -0.88,-1.33 -11.02,3.89 -21.24,13.36 -10.25,9.44 -16.26,19.13 -15,20.11 1.31,1.04 9.13,-6.68 19.01,-15.77 9.84,-9.13 18.16,-16.32 17.23,-17.7"
         style="fill:#f68260;fill-opacity:1;fill-rule:nonzero;stroke:none"
         id="path288" />
      <path
         d="m 1486.84,2476.64 c -1.57,-0.67 -7.36,10.15 -16.49,21.93 -9.04,11.86 -18.01,20.23 -16.96,21.58 0.89,1.28 12.04,-5.42 21.64,-17.98 9.67,-12.5 13.27,-25 11.81,-25.53"
         style="fill:#f68260;fill-opacity:1;fill-rule:nonzero;stroke:none"
         id="path290" />
      <path
         d="m 1525.83,622.039 c 0.34,0.012 0.67,3.41 -0.28,9.473 -1,6.019 -3.47,14.808 -9.58,24.117 -1.57,2.269 -3.13,4.73 -5.71,6.961 -2.44,2.219 -6.66,3.922 -10.72,2.422 -2.03,-0.653 -4.04,-2.5 -4.75,-4.774 -0.76,-2.297 -0.38,-4.578 0.22,-6.429 1.33,-3.809 3.32,-6.528 4.99,-9.68 3.72,-6.258 6.79,-12.488 11.54,-19.539 2.4,-3.602 7.8,-6.578 12.73,-5.731 4.85,0.61 8.77,2.969 12.3,5.45 6.85,4.972 12.88,10.621 18.07,16.652 2.59,3.008 4.95,6.117 7.12,9.269 2.03,3.129 4.44,6.301 5.35,10.649 0.92,4.203 -0.67,9.711 -5.43,11.609 -4.83,1.742 -8.76,-0.679 -11.45,-2.59 -5.46,-4.527 -8.74,-9.179 -12.07,-13.679 -6.34,-8.969 -9.85,-17.207 -11.83,-22.949 -1.94,-5.79 -2.4,-9.141 -2.06,-9.239 0.98,-0.402 4.23,12.949 17.11,29.821 3.2,3.988 7.17,8.859 11.6,12.238 2.26,1.621 5.09,2.66 6.8,1.789 1.81,-0.641 2.81,-3.348 2.22,-5.969 -0.57,-2.691 -2.6,-5.578 -4.69,-8.59 -2.1,-2.968 -4.38,-5.89 -6.86,-8.718 -4.97,-5.661 -10.74,-11.02 -17.19,-15.692 -3.1,-2.238 -6.49,-4.078 -9.63,-4.461 -3.16,-0.39 -5.65,0.86 -7.73,3.571 -3.95,5.742 -7.74,12.839 -11.39,18.742 -1.75,3.078 -3.86,6.066 -4.77,8.636 -0.97,2.711 -0.43,4.454 1.45,5.223 4.34,1.777 8.56,-3.121 11.49,-7.281 12.2,-17.289 12.05,-31.649 13.15,-31.301"
         style="fill:#17282f;fill-opacity:1;fill-rule:nonzero;stroke:none"
         id="path292" />
      <path
         d="M 1280.08,613.629 1158.06,349.18 961.152,440.148 1087.36,767.441 1280.08,613.629"
         style="fill:#f8a58d;fill-opacity:1;fill-rule:nonzero;stroke:none"
         id="path294" />
      <path
         d="m 1181.12,366.828 -71.3,-135.949 c 0,0 182.49,-188.6876 165.35,-230.879 l -428.994,205.691 117.855,272.7 217.089,-111.563"
         style="fill:#33535f;fill-opacity:1;fill-rule:nonzero;stroke:none"
         id="path296" />
      <path
         d="m 986.082,313.07 c -9.391,1.711 -19.602,-4.879 -21.699,-14.179 -2.094,-9.321 4.512,-19.762 13.875,-21.629 9.351,-1.891 21.862,5.636 22.902,15.129 1.04,9.488 -7.39,21.328 -16.93,20.898"
         style="fill:#dadbd8;fill-opacity:1;fill-rule:nonzero;stroke:none"
         id="path298" />
      <path
         d="m 1275.17,0 -64.98,31.1602 v 0 L 1275.17,0 c 2.48,6.10156 0.79,15.25 -3.92,26.4609 C 1275.14,20.75 1281.44,9.03906 1275.17,0"
         style="fill:#ffffff;fill-opacity:1;fill-rule:nonzero;stroke:none"
         id="path300" />
      <path
         d="m 1275.17,0 -64.98,31.1602 -364.014,174.5308 17.847,34.2 404.647,-210.0004 c 0,0 1.12,-1.289 2.58,-3.4297 4.71,-11.2109 6.4,-20.35934 3.92,-26.4609"
         style="fill:#a6b7b9;fill-opacity:1;fill-rule:nonzero;stroke:none"
         id="path302" />
      <path
         d="m 1117.82,229.73 c -1.07,-2.058 -12,2.008 -25.54,0.211 -13.58,-1.429 -23.24,-7.972 -24.78,-6.211 -1.73,1.34 7.4,12.352 23.83,14.239 16.4,2.031 27.87,-6.539 26.49,-8.239"
         style="fill:#17282f;fill-opacity:1;fill-rule:nonzero;stroke:none"
         id="path304" />
      <path
         d="m 1153.9,189.539 c -0.5,-2.25 -11.27,-1.469 -22.64,-6.918 -11.52,-5.109 -17.91,-13.832 -19.95,-12.742 -2.13,0.609 2.3,13.582 16.56,20.082 14.19,6.629 26.94,1.598 26.03,-0.422"
         style="fill:#17282f;fill-opacity:1;fill-rule:nonzero;stroke:none"
         id="path306" />
      <path
         d="m 1153.63,123.441 c -2.11,0.469 -0.01,12.321 10.87,21.219 10.82,8.969 22.86,8.762 22.92,6.59 0.35,-2.289 -8.96,-5.398 -17.78,-12.828 -8.99,-7.231 -13.83,-15.774 -16.01,-14.981"
         style="fill:#17282f;fill-opacity:1;fill-rule:nonzero;stroke:none"
         id="path308" />
      <path
         d="m 1138.29,282.102 c -1.8,-1.493 -10.02,6.007 -22.25,10.878 -12.12,5.129 -23.24,5.571 -23.47,7.891 -0.49,2.09 12.22,5.539 26.55,-0.41 14.36,-5.832 20.99,-17.211 19.17,-18.359"
         style="fill:#17282f;fill-opacity:1;fill-rule:nonzero;stroke:none"
         id="path310" />
      <path
         d="m 1221.31,402.121 321.64,804.949 c 0,0 -7.22,137.34 -32.52,180.71 -25.3,43.37 -791.516,296.37 -791.516,296.37 0,0 -195.172,46.99 -325.281,0 -130.113,-46.98 -227.695,-209.62 -209.625,-299.98 18.07,-90.35 94.332,-156.73 94.332,-156.73 L 841.797,1210.69 1148.91,1098.65 942.09,505.922 1221.31,402.121"
         style="fill:#17282f;fill-opacity:1;fill-rule:nonzero;stroke:none"
         id="path312" />
      <path
         d="m 1507.4,952.18 7.25,-291.16 -216.84,-5.309 -31.24,349.399 240.83,-52.93"
         style="fill:#f8a58d;fill-opacity:1;fill-rule:nonzero;stroke:none"
         id="path314" />
      <path
         d="M 1527.55,687.031 1523.6,533.57 c 0,0 247.04,-88.75 250.29,-134.16 l -475.75,-4.82 -14.63,296.711 244.04,-4.27"
         style="fill:#33535f;fill-opacity:1;fill-rule:nonzero;stroke:none"
         id="path316" />
      <path
         d="m 1376.28,552.699 c -9.18,-2.609 -15.44,-13.027 -13.21,-22.308 2.23,-9.289 12.77,-15.743 22,-13.289 9.22,2.449 17.12,14.726 13.86,23.699 -3.25,8.98 -16.05,15.871 -24.41,11.277"
         style="fill:#dadbd8;fill-opacity:1;fill-rule:nonzero;stroke:none"
         id="path318" />
      <path
         d="m 1307.21,394.68 v 0 l 466.68,4.73 c -0.47,6.559 -6.02,14.02 -15.17,21.981 6.02,-3.411 16.79,-11.121 15.17,-21.981 l -466.68,-4.73"
         style="fill:#ffffff;fill-opacity:1;fill-rule:nonzero;stroke:none"
         id="path320" />
      <path
         d="m 1298.14,394.59 0.93,38.558 455.78,-9.796 c 0,0 1.6,-0.672 3.87,-1.961 9.15,-7.961 14.7,-15.422 15.17,-21.981 l -466.68,-4.73 -9.07,-0.09"
         style="fill:#a6b7b9;fill-opacity:1;fill-rule:nonzero;stroke:none"
         id="path322" />
      <path
         d="m 1531.28,536.07 c -0.05,-2.32 -11.66,-3.488 -23.01,-11.082 -11.55,-7.277 -17.34,-17.406 -19.49,-16.508 -2.15,0.43 1.18,14.348 15.09,23.301 13.82,9.059 27.9,6.43 27.41,4.289"
         style="fill:#17282f;fill-opacity:1;fill-rule:nonzero;stroke:none"
         id="path324" />
      <path
         d="m 1581.39,515.941 c 0.55,-2.25 -9.47,-6.3 -17.26,-16.203 -8.08,-9.679 -9.96,-20.328 -12.28,-20.25 -2.17,-0.379 -3.92,13.211 6,25.332 9.81,12.219 23.47,13.328 23.54,11.121"
         style="fill:#17282f;fill-opacity:1;fill-rule:nonzero;stroke:none"
         id="path326" />
      <path
         d="m 1610.34,456.5 c -2.11,-0.5 -5.46,11.07 0.38,23.852 5.74,12.82 16.65,17.949 17.65,16.027 1.33,-1.899 -5.66,-8.797 -10.28,-19.367 -4.88,-10.453 -5.45,-20.25 -7.75,-20.512"
         style="fill:#17282f;fill-opacity:1;fill-rule:nonzero;stroke:none"
         id="path328" />
      <path
         d="m 1526.53,592.102 c -0.95,-2.133 -11.65,0.968 -24.77,-0.063 -13.14,-0.758 -23.31,-5.258 -24.54,-3.289 -1.37,1.672 8.52,10.371 23.99,11.359 15.46,1.11 26.44,-6.168 25.32,-8.007"
         style="fill:#17282f;fill-opacity:1;fill-rule:nonzero;stroke:none"
         id="path330" />
      <path
         d="m 1380.78,1760.52 c 0,0 129.91,10.39 144.37,-130.57 14.45,-140.96 28.65,-798.759 28.65,-798.759 l -303.6,-25.293 -46.98,672.242 -484.306,206.01 c 0,0 575.116,94.44 661.866,76.37"
         style="fill:#17282f;fill-opacity:1;fill-rule:nonzero;stroke:none"
         id="path332" />
      <path
         d="m 845.285,1950.73 c 0,0 78.852,-221.05 63.836,-245.69 -15.019,-24.64 -217.773,-126.02 -217.773,-126.02 l -507.34,-194.85 c 0,0 -52.106,82.89 -52.106,210.21 0,127.32 176.469,356.35 176.469,356.35 h 536.914"
         style="fill:#17282f;fill-opacity:1;fill-rule:nonzero;stroke:none"
         id="path334" />
      <path
         d="m 694.91,1695.43 c -0.031,-0.08 0.774,-0.51 2.383,-1.28 1.855,-0.86 4.23,-1.95 7.203,-3.33 6.695,-2.98 16.078,-7.16 28.102,-12.5 24.906,-10.85 60.675,-26.44 105.453,-45.95 90.492,-38.95 217.329,-93.55 364.099,-156.73 l -1.64,2.31 c 4.6,-66.4 9.58,-138.12 14.72,-212.32 12.34,-173.44 23.72,-333.36 32.72,-459.892 l 0.16,-2.289 2.28,0.199 c 92.34,8.102 168.11,14.75 221.18,19.411 26.09,2.441 46.57,4.351 60.89,5.691 6.74,0.699 12.02,1.25 15.92,1.648 3.59,0.411 5.43,0.684 5.42,0.793 -0.01,0.118 -1.87,0.079 -5.48,-0.109 -3.91,-0.242 -9.2,-0.57 -15.97,-1 -14.34,-1.062 -34.87,-2.562 -61,-4.473 -53.09,-4.187 -128.93,-10.168 -221.34,-17.468 l 2.45,-2.09 c -8.69,126.558 -19.67,286.499 -31.58,459.979 -5.22,74.18 -10.27,145.9 -14.95,212.3 l -0.12,1.66 -1.52,0.65 c -147.09,62.44 -274.204,116.39 -364.888,154.89 -45.047,18.88 -81.027,33.97 -106.082,44.48 -12.175,5 -21.675,8.9 -28.453,11.68 -3.051,1.2 -5.484,2.16 -7.387,2.9 -1.671,0.62 -2.539,0.92 -2.57,0.84"
         style="fill:#33535f;fill-opacity:1;fill-rule:nonzero;stroke:none"
         id="path336" />
      <path
         d="m 291.426,1673.32 c 0.133,-0.37 5.195,1.04 14.242,3.89 10.074,3.25 22.887,7.38 38.199,12.31 32.231,10.23 76.946,24.47 127.84,32.31 50.891,7.85 97.984,5.42 130.875,-1.68 33.035,-6.84 52.027,-16.27 52.445,-15.2 0.137,0.29 -4.453,2.88 -13.199,6.67 -8.723,3.83 -21.781,8.46 -38.387,12.43 -33.125,8.23 -81.054,11.34 -132.578,3.38 -51.504,-7.93 -96.308,-22.9 -128.277,-34.11 -15.996,-5.68 -28.832,-10.55 -37.656,-14.03 -8.825,-3.5 -13.637,-5.61 -13.504,-5.97"
         style="fill:#33535f;fill-opacity:1;fill-rule:nonzero;stroke:none"
         id="path338" />
      <path
         d="m 363.141,1789.84 c 0.14,-0.89 16.984,2.39 44.351,0.26 13.664,-0.96 29.926,-3.06 48.024,-5.15 18.078,-2.15 37.918,-4.59 58.457,-8.48 41.215,-7.34 76.683,-21.69 99.41,-36.87 22.937,-14.93 33.687,-28.55 34.472,-27.77 0.223,0.18 -2.097,3.82 -7.367,9.54 -5.258,5.69 -13.414,13.58 -24.863,21.55 -22.605,16.37 -58.863,31.71 -100.598,39.12 -20.8,3.94 -40.797,6.23 -58.937,8.1 -18.133,1.8 -34.5,3.5 -48.387,3.95 -13.871,0.5 -25.148,-0.29 -32.824,-1.46 -7.691,-1.17 -11.809,-2.45 -11.738,-2.79"
         style="fill:#33535f;fill-opacity:1;fill-rule:nonzero;stroke:none"
         id="path340" />
      <path
         d="m 587.23,3566.31 c -58.378,9.92 -109.691,-12.56 -158.925,-45.46 -49.235,-32.9 -86.305,-82.57 -107.715,-137.78 -22.543,-58.15 -28.031,-123.59 -10.703,-183.5 17.328,-59.91 58.359,-113.54 113.965,-141.79 75.937,-38.57 173.054,-25.11 240.992,26.25 67.933,51.37 106.769,136.3 110.035,221.41 2.246,58.63 -11.77,118.62 -44.531,167.29 -32.77,48.69 -85.063,85.06 -143.118,93.58"
         style="fill:#17282f;fill-opacity:1;fill-rule:nonzero;stroke:none"
         id="path342" />
      <path
         d="m 421.211,3367.8 c 8.535,22.33 5.227,47.26 8.602,70.93 7.441,52.13 49.441,93.92 98.007,114.24 45.188,18.91 100.371,14.78 154.805,-2.81 37.313,-12.06 72.43,-33.1 97.305,-63.41 33.011,-40.23 44.644,-97.05 30.093,-147.02 l -266.679,38.84 c -24.965,-20.65 -50.528,-41.66 -80.817,-53.18 -8.886,-3.38 -18.445,-5.92 -27.832,-4.43 -9.386,1.49 -18.519,7.87 -20.746,17.11 -2.429,10.1 3.555,20.03 7.262,29.73"
         style="fill:#17282f;fill-opacity:1;fill-rule:nonzero;stroke:none"
         id="path344" />
      <path
         d="m 688.328,3476.53 -232.824,-49.32 c -22.527,-1.5 -40.152,-19.99 -40.582,-42.56 l 2.797,-503.86 c 0.191,-34.42 11.722,-67.82 32.812,-95.02 l 22.207,-28.64 c 50.625,-65.29 153.172,-58.71 191.848,14.3 2.703,5.1 4.566,9.57 5.359,13.18 0.782,4.54 1.985,7.53 2.192,11.38 l 4.433,49.12 c 2.274,44.87 2.582,90.45 2.594,90.03 0,0 95.281,12.04 119.691,134.81 12.145,61.05 12.969,161.89 10.977,244.42 -1.797,74.28 -47.363,167.11 -121.504,162.16"
         style="fill:#f8a58d;fill-opacity:1;fill-rule:nonzero;stroke:none"
         id="path346" />
      <path
         d="m 774.414,3219.81 c -0.031,-8.38 -7.148,-15.26 -15.894,-15.39 -8.731,-0.13 -15.805,6.54 -15.782,14.92 0.035,8.37 7.153,15.26 15.883,15.39 8.75,0.13 15.82,-6.55 15.793,-14.92"
         style="fill:#17282f;fill-opacity:1;fill-rule:nonzero;stroke:none"
         id="path348" />
      <path
         d="m 785.945,3262.82 c -2.039,-1.99 -13.699,7.36 -30.75,7.98 -17.015,0.86 -29.871,-7.43 -31.636,-5.27 -0.875,0.96 1.273,4.61 6.871,8.37 5.515,3.74 14.812,7.22 25.429,6.76 10.621,-0.46 19.395,-4.72 24.375,-8.92 5.082,-4.23 6.719,-8.03 5.711,-8.92"
         style="fill:#17282f;fill-opacity:1;fill-rule:nonzero;stroke:none"
         id="path350" />
      <path
         d="m 621.613,3223.63 c -0.023,-8.38 -7.14,-15.26 -15.89,-15.39 -8.731,-0.12 -15.801,6.54 -15.774,14.92 0.028,8.37 7.149,15.27 15.879,15.4 8.75,0.13 15.82,-6.55 15.785,-14.93"
         style="fill:#17282f;fill-opacity:1;fill-rule:nonzero;stroke:none"
         id="path352" />
      <path
         d="m 624.074,3266.97 c -2.051,-1.98 -13.719,7.36 -30.761,7.98 -17.016,0.86 -29.868,-7.43 -31.633,-5.27 -0.871,0.96 1.254,4.61 6.875,8.37 5.515,3.74 14.808,7.22 25.425,6.77 10.618,-0.47 19.391,-4.73 24.379,-8.93 5.067,-4.22 6.711,-8.03 5.715,-8.92"
         style="fill:#17282f;fill-opacity:1;fill-rule:nonzero;stroke:none"
         id="path354" />
      <path
         d="m 675.219,3137.32 c -0.039,0.97 10.625,2.39 27.883,3.92 4.367,0.28 8.523,0.99 9.375,3.93 1.144,3.11 -0.497,7.87 -2.411,13.01 -3.679,10.7 -7.535,21.9 -11.586,33.65 -16.039,47.88 -27.476,87.19 -25.542,87.82 1.933,0.63 16.507,-37.67 32.554,-85.56 3.848,-11.8 7.535,-23.05 11.035,-33.82 1.461,-5.01 4.075,-10.73 1.598,-17.17 -1.301,-3.21 -4.586,-5.45 -7.406,-6.09 -2.824,-0.75 -5.278,-0.7 -7.434,-0.74 -17.312,-0.26 -28.035,0.08 -28.066,1.05"
         style="fill:#17282f;fill-opacity:1;fill-rule:nonzero;stroke:none"
         id="path356" />
      <path
         d="m 679.164,2935.14 c 0,0 -83.305,-2.13 -163.715,50.55 0,0 38.278,-87.13 162.352,-80.36 l 1.363,29.81"
         style="fill:#f68260;fill-opacity:1;fill-rule:nonzero;stroke:none"
         id="path358" />
      <path
         d="m 666.414,3096.51 c -5.812,8.35 -16.383,13.22 -27.094,12.48 -7.425,-0.5 -15.039,-3.78 -19.765,-9.63 -4.731,-5.85 -6.004,-14.37 -2.137,-20.27 4.348,-6.65 13.898,-8.51 22.121,-6.52 8.231,2 15.438,7.08 22.297,12.16 1.894,1.41 3.836,2.87 5.062,4.86 1.227,1.97 1.575,4.61 0.219,6.34"
         style="fill:#f68260;fill-opacity:1;fill-rule:nonzero;stroke:none"
         id="path360" />
      <path
         d="m 624.594,3127.48 c 2.777,0.05 2.094,-18.46 17.426,-32.2 15.293,-13.8 35.105,-12.48 35.14,-15.07 0.219,-1.17 -4.527,-3.43 -12.859,-3.33 -8.18,0.03 -20.004,3.12 -29.379,11.53 -9.352,8.43 -13.086,19.34 -13.426,26.96 -0.402,7.76 1.84,12.26 3.098,12.11"
         style="fill:#17282f;fill-opacity:1;fill-rule:nonzero;stroke:none"
         id="path362" />
      <path
         d="m 623.113,3317.57 c -1.855,-4.57 -18.793,-1.71 -38.883,-3.34 -20.128,-1.24 -36.484,-6.46 -38.976,-2.2 -1.106,2.03 1.875,6.29 8.566,10.52 6.645,4.23 17.121,8.08 29.176,8.95 12.063,0.85 22.981,-1.48 30.149,-4.73 7.226,-3.24 10.781,-7.03 9.968,-9.2"
         style="fill:#17282f;fill-opacity:1;fill-rule:nonzero;stroke:none"
         id="path364" />
      <path
         d="m 783.895,3337.55 c -3.149,-3.75 -14.735,0.73 -28.852,1.46 -14.082,1.23 -26.176,-1.58 -28.773,2.57 -1.133,2.01 0.902,5.82 6.269,9.28 5.293,3.45 14.024,6.1 23.715,5.43 9.691,-0.68 17.961,-4.52 22.715,-8.67 4.84,-4.17 6.324,-8.23 4.926,-10.07"
         style="fill:#17282f;fill-opacity:1;fill-rule:nonzero;stroke:none"
         id="path366" />
      <path
         d="m 378.535,3403.75 c 24.137,70.9 129.528,167.5 204.113,160.8 l 117.86,-73.92 c -8.028,-40.5 -40.117,-75.27 -79.852,-86.51 -21.218,-6 -46.652,-7.26 -59.554,-25.15 -13.172,-18.26 -6.223,-45.38 -18.524,-64.24 -17.051,-26.15 -62.18,-23.99 -75.14,-52.38 -5.668,-12.4 -3.137,-27.4 -9.02,-39.71 -7.84,-16.39 -50.121,-36.52 -67.328,-30.69 -17.203,5.84 -16.668,35.32 -22.024,50.88 -9.144,26.59 -4.886,40.2 -1.41,54.88 8.239,34.77 -0.64,72.22 10.879,106.04"
         style="fill:#17282f;fill-opacity:1;fill-rule:nonzero;stroke:none"
         id="path368" />
      <path
         d="m 441.891,3176.34 c 0.332,9.2 -9.461,31.3 -18.489,33.07 -24.109,4.73 -67.914,4.48 -70.714,-57.12 -3.821,-84.19 81.496,-70.67 81.753,-68.26 0.207,1.88 6.289,60.55 7.45,92.31"
         style="fill:#f8a58d;fill-opacity:1;fill-rule:nonzero;stroke:none"
         id="path370" />
      <path
         d="m 410.172,3117.1 c -0.359,0.28 -1.516,-0.96 -4.039,-1.99 -2.473,-0.99 -6.664,-1.56 -10.977,0.28 -8.75,3.67 -15.597,18.13 -15.312,33.32 0.133,7.68 2.062,14.9 5.058,20.82 2.844,6.04 7.028,10.16 11.543,10.75 4.496,0.83 7.547,-1.99 8.473,-4.41 1.023,-2.41 0.406,-4.06 0.852,-4.22 0.226,-0.23 1.867,1.32 1.347,4.83 -0.273,1.69 -1.168,3.72 -3.07,5.43 -1.949,1.73 -4.879,2.7 -8.02,2.51 -6.511,-0.16 -12.625,-5.87 -15.91,-12.36 -3.644,-6.51 -6.004,-14.62 -6.152,-23.24 -0.231,-16.99 7.734,-33.26 19.746,-37.33 5.848,-1.81 10.879,-0.25 13.516,1.62 2.699,1.96 3.23,3.82 2.945,3.99"
         style="fill:#f68260;fill-opacity:1;fill-rule:nonzero;stroke:none"
         id="path372" />
      <path
         d="m 360.504,3425.6 v 0 c 0.269,26.34 -32.629,43.57 -58.289,49.54 -25.652,5.96 -52.785,-1.84 -75.895,-14.5 -13.511,-7.4 -27.121,-17.94 -30.144,-33.05 -3.028,-15.11 11.512,-33.12 25.945,-27.71 -27.644,-9.46 -41.668,-46.39 -27.269,-71.82 14.402,-25.43 53.277,-32.4 75.613,-13.56 -7.207,-24.13 -22.945,-45.62 -43.777,-59.77 43.316,-6.18 89.3,12.33 116.277,46.77 26.973,34.45 33.91,83.52 17.539,124.1"
         style="fill:#17282f;fill-opacity:1;fill-rule:nonzero;stroke:none"
         id="path374" />
      <path
         d="m 302.051,3291.67 c -0.602,-0.09 -2.848,9.47 -3.145,25.28 -0.34,15.76 2,37.8 9.696,60.76 7.773,22.95 19.25,41.91 29.054,54.25 9.797,12.41 17.371,18.65 17.793,18.22 1.551,-1.09 -26.695,-29.07 -41.562,-74.25 -15.5,-44.95 -9.938,-84.32 -11.836,-84.26"
         style="fill:#f2575d;fill-opacity:1;fill-rule:nonzero;stroke:none"
         id="path376" />
      <path
         d="m 676.043,3516.09 c 7.754,-34.28 59.855,-78.24 82.727,-104.93 43.636,-50.92 52.242,-67.83 51.808,-181.67 20.61,39.32 36.383,77.84 34.801,122.2 -1.582,44.36 -17.918,88.8 -48.758,120.73 -30.84,31.92 -76.644,50.04 -120.578,43.67"
         style="fill:#17282f;fill-opacity:1;fill-rule:nonzero;stroke:none"
         id="path378" />
      <path
         d="m 1033.15,2579.25 c 0,0 -90.748,151.32 -115.935,181.92 -23.613,28.69 -54.031,45.62 -74.336,54.51 -11.297,4.94 -23.18,8.33 -35.324,10.44 l -130.516,28.9 c 0,0 -0.226,-89.08 -93.562,-94.59 -93.34,-5.51 -171.93,124.51 -171.93,124.51 0,0 -150.785,-23.32 -186.863,-41.88 -36.086,-18.56 -92.782,-42.13 -123.977,-198.36 L 78.8086,2491.86 338.805,2467.83 363.68,2081.48 492.621,1991.7 c 0,0 357.461,-92.94 380.305,-99.08 22.84,-6.15 30.402,575.21 30.402,575.21 0,0 91.82,59.37 129.822,111.42"
         style="fill:#17282f;fill-opacity:1;fill-rule:nonzero;stroke:none"
         id="path380" />
      <path
         d="m 862.031,2644.22 c 0.336,0.13 2.106,-3.84 5.02,-11.14 2.972,-7.28 6.762,-18.02 10.98,-31.43 8.469,-26.81 17.758,-64.72 23.024,-107.37 5.183,-42.69 5.312,-81.72 3.558,-109.78 -0.859,-14.04 -1.949,-25.36 -3.078,-33.14 -1.066,-7.79 -1.824,-12.07 -2.18,-12.03 -0.363,0.04 -0.285,4.4 0.165,12.21 0.503,7.82 1.031,19.14 1.414,33.12 0.804,27.94 0.089,66.63 -5.051,108.98 -5.227,42.33 -13.863,80.04 -21.387,106.97 -3.738,13.47 -6.98,24.34 -9.359,31.8 -2.317,7.48 -3.446,11.69 -3.106,11.81"
         style="fill:#33535f;fill-opacity:1;fill-rule:nonzero;stroke:none"
         id="path382" />
      <path
         d="m 850.945,2011.38 -489.519,106.56 -22.621,349.89 -217.692,20.12 c 0,0 8.051,-239.2 16.426,-310.3 12.039,-102.28 72.492,-241.84 107.859,-269.72 35.368,-27.88 627.528,-15.31 627.528,-15.31 l -21.981,118.76"
         style="fill:#f8a58d;fill-opacity:1;fill-rule:nonzero;stroke:none"
         id="path384" />
      <path
         d="m 1128.81,1947.96 c -3.44,-6.83 -10.6,-11.28 -18.23,-10.62 -1.51,0.13 -3.1,0.43 -4.74,0.96 -10.82,3.47 -9.81,25.52 -9.81,25.52 l -51.88,8.47 c 0,0 -67.462,-43.5 -91.462,-72.34 -24,-28.84 -85.227,-5.48 -85.227,-5.48 l -21.227,110.58 95.489,86.35 c 0,0 -5.864,-5.15 0.722,11 6.582,16.16 36.59,10.05 36.59,10.05 4.668,7.99 24.265,10.85 24.265,10.85 l 83.76,-9.65 c 17.26,-1.99 32.69,-11.69 41.97,-26.37 l 35.42,-56.07 c 0,0 18.7,-40.37 15.7,-49.75 -4.55,-14.17 -19.52,-11.01 -19.52,-11.01 0,0 -4.12,-26.54 -11.09,-27.46 -6.97,-0.93 -20.73,4.97 -20.73,4.97"
         style="fill:#f8a58d;fill-opacity:1;fill-rule:nonzero;stroke:none"
         id="path386" />
      <path
         d="m 950.547,2027.37 c 0.086,-0.87 11.23,0.16 29.121,-0.61 17.84,-0.88 42.542,-4.01 68.352,-12.8 12.9,-4.34 24.8,-9.58 35.24,-15.06 10.12,-5.71 20.68,-10.38 23.92,-17.76 1.63,-3.61 0.9,-7.27 -0.91,-9.98 -1.77,-2.69 -4.19,-4.47 -6.32,-5.35 -4.4,-1.81 -7.25,-0.57 -7.35,-1.07 -0.2,-0.12 2.6,-2.31 8.02,-0.89 2.62,0.71 5.65,2.46 8.09,5.58 2.49,2.97 3.92,8.27 1.97,13.11 -1.81,4.89 -5.97,8.66 -10.42,11.78 -4.56,2.98 -9.33,6.04 -14.67,8.9 -10.54,5.85 -22.67,11.36 -35.87,15.8 -26.42,9 -51.825,11.6 -69.974,11.51 -18.226,-0.19 -29.289,-2.57 -29.199,-3.16"
         style="fill:#f68260;fill-opacity:1;fill-rule:nonzero;stroke:none"
         id="path388" />
      <path
         d="m 944.688,1973.97 c 0.097,-1.59 34.179,-0.16 76.052,-2.61 41.9,-2.31 75.6,-7.58 75.88,-6.02 0.12,0.7 -8.17,2.9 -21.81,5.29 -13.64,2.41 -32.65,4.85 -53.77,6.06 -21.102,1.18 -40.267,0.92 -54.083,0.08 -13.828,-0.84 -22.312,-2.1 -22.269,-2.8"
         style="fill:#f68260;fill-opacity:1;fill-rule:nonzero;stroke:none"
         id="path390" />
      <path
         d="m 1128.32,1950.08 c 0.28,0.06 0.66,3.14 1.06,8.92 0.35,5.78 0.7,14.14 0.05,24.54 -0.35,5.18 -0.91,10.89 -2.34,16.98 -1.32,6.12 -4.24,12.57 -8.22,18.25 -7.55,11.43 -18.04,23.26 -31.39,32.14 -13.3,8.78 -26.6,16.18 -40.06,20.25 -13.36,4.05 -25.85,5.04 -36.18,5.5 -10.36,0.37 -18.697,0.14 -24.459,-0.08 -5.758,-0.23 -8.945,-0.54 -8.949,-0.9 -0.035,-0.86 12.773,-1.29 33.168,-2.78 10.16,-0.94 22.28,-2.31 34.95,-6.44 12.57,-4.03 25.65,-11.46 38.5,-19.95 12.88,-8.61 22.68,-19.45 30.36,-30.52 8.1,-10.57 9.61,-22.69 10.86,-32.79 2.01,-20.27 1.5,-33.15 2.65,-33.12"
         style="fill:#f68260;fill-opacity:1;fill-rule:nonzero;stroke:none"
         id="path392" />
      <path
         d="m 1007.34,2102.02 c 0,-0.8 12.54,-1.12 32.55,-3.43 19.27,-2.96 50.11,-4.36 67.67,-30.93 19.03,-24.16 35.2,-46.99 42.28,-65.7 7.5,-18.59 6.83,-31.45 7.93,-31.35 0.28,-0.01 0.77,3.14 0.49,8.87 -0.24,5.73 -1.47,14.06 -4.88,23.79 -6.43,19.76 -22.51,43.43 -41.65,67.73 -4.88,6.1 -10.16,11.89 -16.28,16.45 -6.1,4.66 -13.19,7.37 -19.7,9.26 -13.21,3.73 -25.36,4.82 -35.51,5.64 -20.33,1.36 -32.91,0.35 -32.9,-0.33"
         style="fill:#f68260;fill-opacity:1;fill-rule:nonzero;stroke:none"
         id="path394" />
      <path
         d="m 971.012,1917.8 c 0.109,-0.12 1.812,1.18 4.972,3.8 3.59,2.88 8.235,6.61 14.024,11.26 12.372,9.57 30.752,23.18 55.052,37.92 l -1.19,-0.23 c 15.47,-2.64 32.92,-5.61 51.82,-8.82 l -1.77,2.19 c -0.12,-4.24 0.12,-8.38 0.96,-12.68 0.87,-4.22 2.21,-8.77 5.88,-12.47 1.91,-1.8 4.63,-2.87 6.88,-3.16 2.31,-0.59 4.82,-0.82 7.3,-0.43 4.94,0.71 9.6,3.32 12.9,7.14 0.85,0.94 1.57,1.99 2.25,3.07 l 0.48,0.83 0.23,0.42 0.11,0.21 0.02,0.02 c 0.67,0.26 -5.79,-2.1 -3.05,-1.11 l 0.06,-0.02 0.11,-0.05 1.64,-0.66 c 2.19,-0.87 4.42,-1.66 6.7,-2.37 2.29,-0.72 4.63,-1.34 7.1,-1.78 1.25,-0.21 2.51,-0.39 3.86,-0.42 1.26,-0.05 2.78,-0.09 4.8,0.93 2.92,2.09 3.97,4.55 5.08,6.86 1.04,2.36 1.88,4.73 2.57,7.13 1.44,4.81 2.47,9.64 3.34,14.68 l -3.03,-2.1 c 6.72,-1.18 14.65,0.44 19.32,6.59 2.1,2.86 3.82,6.4 3.57,10.44 -0.17,3.63 -0.99,6.82 -1.84,10.04 -3.63,12.72 -8.76,24.92 -14.3,37.29 l -0.06,0.15 -0.11,0.16 c -6.02,9.54 -12.41,19.66 -18.88,29.91 -4.02,6.37 -8.02,12.68 -11.98,18.95 -3.98,6.08 -7.55,12.9 -13.14,18.36 -5.38,5.44 -11.84,9.7 -18.8,12.49 -6.91,2.99 -14.59,3.73 -21.36,4.44 -27.75,3.12 -54.21,6.1 -78.95,8.88 l -0.34,0.03 -0.28,-0.04 c -4.851,-0.83 -9.386,-1.96 -13.847,-3.65 -4.34,-1.75 -8.941,-3.72 -12.027,-8.41 l 2.902,0.91 c -8.867,3.63 -19.133,3.67 -26.898,-1.5 -7.805,-5.14 -11.399,-13.43 -13.313,-21.21 l 0.637,1.09 c -27.422,-24.66 -49.801,-44.78 -65.809,-59.18 -7.378,-6.8 -13.277,-12.23 -17.726,-16.33 -4.016,-3.79 -6.066,-5.85 -5.934,-5.99 0.133,-0.15 2.434,1.63 6.692,5.13 4.629,3.9 10.758,9.08 18.426,15.54 16.289,14.07 39.062,33.75 66.968,57.86 l 0.453,0.39 0.184,0.71 c 1.758,6.86 5.297,14.43 11.73,18.41 6.254,4.22 15.254,4.09 22.68,0.98 l 1.832,-0.76 1.074,1.67 c 1.797,2.79 5.774,4.89 9.762,6.36 4.039,1.49 8.5,2.57 12.904,3.28 l -0.61,-0.01 c 24.72,-2.91 51.16,-6.04 78.9,-9.31 7.07,-0.78 13.67,-1.43 19.99,-4.16 6.29,-2.55 12.13,-6.41 16.99,-11.34 4.94,-4.77 8.3,-11.18 12.4,-17.48 3.96,-6.27 7.96,-12.6 11.97,-18.96 6.48,-10.24 12.88,-20.36 18.91,-29.9 l -0.16,0.3 c 5.45,-12.1 10.59,-24.34 14.08,-36.44 0.82,-3.01 1.56,-6.1 1.69,-8.85 0.28,-2.38 -0.93,-4.95 -2.47,-7.1 -3.01,-4.26 -9.09,-5.6 -14.19,-4.77 l -2.61,0.43 -0.42,-2.52 c -0.79,-4.75 -1.79,-9.53 -3.11,-14.04 -1.25,-4.28 -3.13,-9.48 -5.42,-11.21 -0.12,-0.06 -1.01,-0.34 -2.11,-0.23 -1.01,0 -2.1,0.15 -3.17,0.32 -2.17,0.36 -4.35,0.94 -6.5,1.59 -2.16,0.65 -4.29,1.39 -6.38,2.2 l -1.54,0.62 -0.09,0.04 -0.04,0.01 c 2.73,1 -3.75,-1.35 -3.08,-1.12 l -0.02,-0.02 -0.08,-0.16 -0.18,-0.33 -0.37,-0.67 -1.76,-2.42 c -2.59,-3.06 -6.22,-5.1 -10,-5.67 -1.9,-0.33 -3.79,-0.15 -5.7,0.33 -2.07,0.28 -3.45,0.87 -4.74,1.98 -4.94,5.15 -5.65,14.34 -5.68,21.66 l -0.01,1.91 -1.76,0.28 c -18.95,2.97 -36.43,5.69 -51.94,8.11 l -0.67,0.11 -0.52,-0.33 c -24.3,-15.28 -42.37,-29.37 -54.445,-39.44 -6.008,-5.09 -10.52,-9.16 -13.481,-12.03 -2.945,-2.86 -4.426,-4.41 -4.312,-4.53"
         style="fill:#f68260;fill-opacity:1;fill-rule:nonzero;stroke:none"
         id="path396" />
      <path
         d="m 1763.94,2269.62 -644.79,-5.24 c -20.91,0 -40.9,-10.04 -44.03,-30.72 L 1004.65,1763.7 H 672.531 c -10.687,0 -19.359,-8.66 -19.359,-19.35 0,-10.7 8.672,-19.37 19.359,-19.37 h 326.317 61.942 672.49 l 72.49,496 c 3.88,25.59 -15.94,48.64 -41.83,48.64"
         style="fill:#dadbd8;fill-opacity:1;fill-rule:nonzero;stroke:none"
         id="path398" />
      <path
         d="m 1763.94,2269.62 c 0,0 3.51,0.45 10.16,-0.95 6.46,-1.5 16.62,-5.49 24.63,-16.34 4,-5.3 7.03,-12.39 7.97,-20.57 1.05,-8.31 -1.33,-17.06 -2.37,-26.53 -2.7,-18.99 -5.81,-40.86 -9.3,-65.44 -14.19,-98.53 -34.65,-240.52 -59.79,-415.09 l -0.24,-1.71 h -1.73 c -274.48,-0.16 -635.19,-0.37 -1029.079,-0.61 -9.25,0 -18.48,0 -27.691,0 -4.27,-0.18 -10.227,0.06 -14.656,2.79 -4.574,2.52 -8.133,6.74 -9.914,11.64 -3.864,9.83 0.75,21.88 10.011,26.76 4.418,2.68 10.309,2.9 14.528,2.74 h 13.64 c 36.329,-0.01 72.286,-0.02 107.782,-0.02 70.984,-0.03 140.129,-0.05 206.759,-0.07 l -2.48,-2.14 c 25.36,168.3 49.03,325.3 70.25,466.15 0.74,8.92 4.77,18.57 11.93,24.56 7,6.21 15.86,9.5 24.66,10.87 8.97,1.37 17.5,0.63 25.99,0.92 8.51,0.06 16.95,0.11 25.32,0.17 33.48,0.23 65.87,0.45 97.08,0.66 62.4,0.39 120.11,0.76 172.51,1.09 104.69,0.54 188.15,0.96 245.6,1.26 28.56,0.05 50.61,0.09 65.7,0.12 7.38,-0.04 13.01,-0.07 16.97,-0.09 3.81,-0.03 5.76,-0.17 5.76,-0.17 0,0 -1.94,-0.16 -5.76,-0.27 -3.95,-0.08 -9.59,-0.2 -16.96,-0.35 -15.09,-0.22 -37.15,-0.54 -65.7,-0.95 -57.46,-0.64 -140.91,-1.57 -245.59,-2.73 -52.41,-0.52 -110.12,-1.09 -172.52,-1.71 -31.21,-0.3 -63.59,-0.61 -97.07,-0.92 -8.37,-0.09 -16.81,-0.17 -25.32,-0.24 -8.48,-0.29 -17.21,0.36 -25.36,-0.93 -8.19,-1.29 -16.31,-4.4 -22.48,-9.92 -6.34,-5.52 -9.69,-13.21 -10.49,-22.02 -21.02,-140.87 -44.44,-297.9 -69.55,-466.25 l -0.32,-2.14 h -2.17 c -66.63,-0.02 -135.775,-0.04 -206.759,-0.07 -35.496,0 -71.453,-0.01 -107.782,-0.02 h -13.64 c -4.817,0.14 -8.403,-0.05 -12.016,-2.08 -7.066,-3.74 -10.594,-12.93 -7.637,-20.43 1.352,-3.72 4.071,-6.97 7.567,-8.88 3.629,-2.06 7.246,-2.26 12.117,-2.12 9.211,0 18.441,0 27.691,0 393.889,-0.24 754.599,-0.45 1029.079,-0.62 l -1.97,-1.7 c 25.88,174.47 46.92,316.37 61.52,414.85 3.69,24.55 6.97,46.39 9.82,65.37 1.14,9.49 3.57,18.21 2.63,26.12 -0.82,7.91 -3.66,14.83 -7.48,20.05 -7.64,10.66 -17.51,14.77 -23.83,16.44 -6.51,1.56 -10.04,1.27 -10.02,1.52"
         style="fill:#17282f;fill-opacity:1;fill-rule:nonzero;stroke:none"
         id="path400" />
      <path
         d="m 1373.83,2003.28 c 0,-22.29 18.07,-40.37 40.37,-40.37 22.29,0 40.37,18.08 40.37,40.37 0,22.3 -18.08,40.36 -40.37,40.36 -22.3,0 -40.37,-18.06 -40.37,-40.36"
         style="fill:#ffffff;fill-opacity:1;fill-rule:nonzero;stroke:none"
         id="path402" />
      <path
         d="m 1030.78,1729.33 c 0.91,-0.16 21.44,119.51 45.84,267.24 24.4,147.78 43.45,267.66 42.53,267.81 -0.91,0.16 -21.43,-119.49 -45.84,-267.27 -24.39,-147.73 -43.44,-267.64 -42.53,-267.78"
         style="fill:#17282f;fill-opacity:1;fill-rule:nonzero;stroke:none"
         id="path404" />
    </g>
  </g>
</svg>
